<?xml version="1.0" standalone="no"?>
<!DOCTYPE svg PUBLIC "-//W3C//DTD SVG 1.1//EN" "http://www.w3.org/Graphics/SVG/1.1/DTD/svg11.dtd" >
<svg xmlns="http://www.w3.org/2000/svg">
<metadata>Generated by IcoMoon</metadata>
<defs>
<font id="icomoon" horiz-adv-x="1024">
<font-face units-per-em="1024" ascent="788.48" descent="-235.52" />
<missing-glyph horiz-adv-x="1024" />
<glyph unicode="&#x20;" d="" horiz-adv-x="512" />
<glyph unicode="&#x20a8;" d="M48.948 446.075v45.585q0.506 4.053 4.051 4.053h238.559q-12.156 46.091-51.662 74.961-54.701 28.87-99.779 28.87h-87.117q-4.053 0-4.053 4.053v45.585q0.506 4.051 4.053 4.051h479.143q4.053-0.506 4.053-4.051v-45.585q0-4.053-4.053-4.053h-180.312v-4.051q38.495-20.767 59.768-85.091l2.026-14.688h118.52q4.053-0.506 4.053-4.053v-45.585q0-4.051-4.053-4.051h-113.961q0-76.48-93.701-148.909-83.065-47.611-118.013-47.611 0-2.026-4.051-2.026l257.299-333.273v-4.053h-97.753q-1.52 0-298.324 386.962v2.026h30.896q164.104 0 197.026 118.013 2.026 14.182 2.026 22.792v6.077h-240.585q-4.051 0-4.051 4.051z" horiz-adv-x="585" />
<glyph unicode="&#xe600;" d="M362.24 395.611c11.093-5.76 36.267-16.213 61.653-16.213 32.213 0 48.64 15.573 48.64 35.627 0 26.027-26.027 37.973-53.547 37.973h-25.387v44.373h24.107c20.907 0.427 47.36 8.107 47.36 30.507 0 16-13.227 27.733-39.253 27.733-21.547 0-44.373-9.387-55.467-16l-12.587 45.013c16 10.24 47.787 20.053 82.133 20.053 56.747 0 88.32-29.867 88.32-66.133 0-28.373-15.787-50.347-48.64-61.653v-0.853c31.787-5.76 57.6-29.867 57.6-64.427 0-46.933-41.173-81.28-108.587-81.28-34.347 0-63.36 8.96-78.72 18.773l12.373 46.507zM747.307 556.038c-7.040 0.427-14.293 0-24.107-0.853-55.253-4.48-79.573-32.64-86.613-63.787h1.28c13.013 13.44 31.36 21.333 56.32 21.333 44.587 0 81.92-31.36 81.92-86.613 0-52.693-40.32-96-97.92-96-70.613 0-105.387 52.693-105.387 116.053 0 49.92 18.347 91.52 46.933 117.973 26.667 24.107 60.8 37.12 102.613 39.253 11.52 0.853 18.773 0.853 24.96 0.427v-47.787zM713.387 422.918c0 24.533-13.013 45.653-39.467 45.653-16.64 0-30.72-10.24-36.693-23.68-1.707-3.2-2.56-8.107-2.56-15.573 1.28-28.16 14.72-53.547 42.88-53.547 21.973 0.213 35.84 20.267 35.84 47.147zM1000.533 468.571c0-82.133-33.067-138.453-100.907-138.453-68.48 0-98.773 61.653-99.2 136.747 0 76.8 32.64 137.6 101.333 137.6 71.040 0.213 98.773-63.147 98.773-135.893zM862.933 467.078c-0.427-60.8 14.293-89.813 38.4-89.813s37.12 30.293 37.12 90.667c0 58.88-12.587 89.813-37.547 89.813-22.827 0-38.4-29.013-37.973-90.667zM1111.893 588.464c0-36.693-25.387-52.693-49.493-52.693-26.88 0-47.573 19.627-47.573 50.987 0 33.28 21.76 52.693 49.28 52.693 28.373 0 47.787-20.693 47.787-50.987zM1033.173 587.398c0-21.76 12.373-38.187 30.080-38.187 17.28 0 30.080 16.213 30.080 38.613 0 16.853-8.32 38.187-29.653 38.187s-30.507-19.84-30.507-38.613zM756.48 102.064l-125.653 113.28v-76.373c-301.867 7.253-539.733 86.827-539.733 183.893 0 62.080 97.493 117.12 246.613 150.4v26.24c-185.813-41.387-309.973-115.627-309.973-200.533 0-124.16 266.027-225.92 603.093-234.667v-67.413l125.653 105.173zM1084.587 482.864v-28.16c108.8-33.493 176.64-80.213 176.64-132.053 0-76.8-149.12-142.72-360.96-170.24v-74.667c250.027 32.853 428.8 119.467 428.8 221.227 0 74.453-95.573 140.8-244.48 183.893z" horiz-adv-x="1365" />
<glyph unicode="&#xe601;" d="M755.584 444.678l170.069-26.923c1.109-0.171 2.261-0.256 3.371-0.256 10.283 0 19.371 7.509 21.035 18.005 1.835 11.648-6.144 22.571-17.749 24.405l-127.061 20.139 124.331 88.32c9.6 6.827 11.819 20.139 4.992 29.739-6.741 9.6-20.139 11.819-29.739 5.035l-122.581-87.083 19.925 117.675c1.963 11.648-5.888 22.613-17.493 24.619-11.349 1.792-22.613-5.845-24.576-17.493l-35.669-159.744-212.437-144.811v216.448l134.187 118.443c8.576 8.064 13.312 21.589 5.205 30.165-8.021 8.576-28.032 8.96-36.608 0.853l-102.784-90.795v172.075c0 11.776-9.557 21.333-21.333 21.333s-21.333-9.557-21.333-21.333v-169.643l-85.163 82.645c-8.832 7.765-17.963 6.912-25.771-1.92-7.765-8.875-13.44-22.357-4.565-30.123l115.499-107.435v-228.352l-192.512 142.976-26.155 169.429c-2.133 11.648-11.221 19.328-22.613 17.237-11.605-2.091-18.219-13.184-16.128-24.789l23.296-126.549-102.059 72.704c-9.515 6.827-22.699 4.608-29.568-5.035-6.827-9.6-4.523-22.912 5.035-29.739l100.48-71.381-117.632-19.883c-11.648-1.963-19.456-12.971-17.493-24.576 1.749-10.411 10.795-17.792 20.992-17.792 1.195 0 2.389 0.085 3.584 0.299l159.872 26.965 207.317-147.371-198.528-141.056-159.915 27.008c-11.435 1.749-22.613-5.845-24.576-17.493-1.963-11.605 5.888-22.656 17.493-24.619l117.803-19.883-100.523-71.424c-9.6-6.827-11.819-20.139-4.992-29.739 4.139-5.845 10.709-8.96 17.365-8.96 4.309 0 8.619 1.28 12.373 3.925l102.4 72.747-22.827-126.592c-2.091-11.563 5.632-22.699 17.195-24.747 1.28-0.213 2.56-0.341 3.84-0.341 10.112 0 19.072 7.211 20.949 17.579l21.845 169.472 183.68 136.576v-276.395l-100.651-111.573c-8.235-8.405-3.755-21.931 4.651-30.165 4.139-4.096 11.691-6.101 17.067-6.101 5.547 0 3.456 2.133 7.68 6.4l71.253 80.469v-114.645c0-11.776 9.557-21.333 21.333-21.333s21.333 9.557 21.333 21.333v135.125l104.491-95.659c8.32-8.277 26.155-8.32 34.517 0.043 8.32 8.32 10.496 21.845 2.176 30.165l-130.091 122.24c-1.024 1.067-11.093 1.621-11.093 2.389v250.069l203.605-138.539 31.317-159.659c1.749-10.411 12.971-17.792 23.168-17.792 1.195 0 3.456 0.085 4.651 0.299 11.605 1.963 20.011 12.971 18.048 24.619l-19.584 117.589 122.581-87.040c3.755-2.645 8.107-3.925 12.416-3.925 6.656 0 13.269 3.115 17.408 8.96 6.827 9.6 4.608 22.912-4.949 29.739l-124.331 88.363 127.189 20.096c11.605 1.835 19.584 12.757 17.749 24.405-1.877 11.648-13.056 19.627-24.405 17.749l-170.24-26.88-207.189 147.285 216.149 153.429z" />
<glyph unicode="&#xe602;" d="M1045.333-91.429h-597.333c-11.776 0-21.333 9.557-21.333 21.333v853.333c0 11.776 9.557 21.333 21.333 21.333h341.333c5.675 0 11.093-2.261 15.061-6.272l256-256c4.011-3.968 6.272-9.387 6.272-15.061v-597.333c0-11.776-9.557-21.333-21.333-21.333zM469.333-48.762h554.667v567.168l-243.499 243.499h-311.168v-810.667zM1045.333 505.904h-256c-11.776 0-21.333 9.557-21.333 21.333v256c0 11.776 9.557 21.333 21.333 21.333s21.333-9.557 21.333-21.333v-234.667h234.667c11.776 0 21.333-9.557 21.333-21.333s-9.557-21.333-21.333-21.333zM917.333-219.429h-597.333c-11.776 0-21.333 9.557-21.333 21.333v853.333c0 11.776 9.557 21.333 21.333 21.333h128c11.776 0 21.333-9.557 21.333-21.333s-9.557-21.333-21.333-21.333h-106.667v-810.667h554.667v106.667c0 11.776 9.557 21.333 21.333 21.333s21.333-9.557 21.333-21.333v-128c0-11.776-9.557-21.333-21.333-21.333zM735.915 281.904h-186.667c-11.776 0-21.333 9.557-21.333 21.333s9.557 21.333 21.333 21.333h186.667c11.776 0 21.333-9.557 21.333-21.333 0-11.819-9.557-21.333-21.333-21.333zM825.515 157.36h-276.267c-11.776 0-21.333 9.557-21.333 21.333s9.557 21.333 21.333 21.333h276.267c11.776 0 21.333-9.557 21.333-21.333 0-11.819-9.557-21.333-21.333-21.333zM935.893 32.816h-386.645c-11.776 0-21.333 9.557-21.333 21.333s9.557 21.333 21.333 21.333h386.645c11.776 0 21.333-9.557 21.333-21.333s-9.515-21.333-21.333-21.333z" horiz-adv-x="1365" />
<glyph unicode="&#xe603;" d="M889.813-34.042c-11.733 0-21.12 9.387-21.12 21.12v747.733c0 11.733-9.6 21.12-21.12 21.12h-528.853c-11.733 0-21.12-9.6-21.12-21.12v-581.76c0-11.733-9.387-21.12-21.12-21.12s-21.12 9.387-21.12 21.12v581.76c0 34.987 28.373 63.36 63.36 63.36h528.64c35.2 0 63.573-28.373 63.573-63.36v-747.52c0-11.733-9.387-21.333-21.12-21.333zM584.747 363.611c-50.987 0-91.093 65.493-91.093 149.12s40.107 148.907 91.093 148.907c51.2 0 91.093-65.493 91.093-149.12s-39.893-148.907-91.093-148.907zM584.747 619.398c-23.040 0-48.853-45.653-48.853-106.667s25.813-106.667 48.853-106.667c23.040 0 48.853 45.653 48.853 106.667s-25.813 106.667-48.853 106.667zM460.373 426.331h-66.987c-11.733 0-21.12 9.387-21.12 21.12s9.387 21.12 21.12 21.12h66.987c11.733 0 21.12-9.387 21.12-21.12 0.213-11.733-9.387-21.12-21.12-21.12zM458.24 560.304h-64.853c-11.733 0-21.12 9.387-21.12 21.12s9.387 21.12 21.12 21.12h64.853c11.733 0 21.12-9.387 21.12-21.12s-9.387-21.12-21.12-21.12zM776.107 428.038h-71.253c-11.733 0-21.12 9.387-21.12 21.12s9.387 21.12 21.12 21.12h71.253c11.733 0 21.12-9.387 21.12-21.12 0-11.52-9.6-21.12-21.12-21.12zM776.107 560.304h-64.853c-11.733 0-21.12 9.387-21.12 21.12s9.387 21.12 21.12 21.12h64.853c11.733 0 21.12-9.387 21.12-21.12s-9.6-21.12-21.12-21.12zM773.547 264.198h-383.36c-11.733 0-21.12 9.387-21.12 21.12s9.387 21.12 21.12 21.12h383.36c11.733 0 21.12-9.387 21.12-21.12s-9.387-21.12-21.12-21.12zM1121.92-204.496h-882.773c-34.987 0-63.36 28.373-63.36 63.36v248.533c0 34.987 28.373 63.36 63.36 63.36h136.107c11.733 0 21.12-9.387 21.12-21.12v-140.16h568.32v140.16c0 11.733 9.387 21.12 21.12 21.12h136.107c34.987 0 63.36-28.373 63.36-63.36v-248.533c0.213-34.987-28.373-63.36-63.36-63.36zM239.147 128.518c-11.733 0-21.12-9.6-21.12-21.12v-248.533c0-11.733 9.6-21.12 21.12-21.12h882.987c11.733 0 21.12 9.6 21.12 21.12v248.533c0 11.733-9.6 21.12-21.12 21.12h-115.2v-140.16c0-11.733-9.387-21.12-21.12-21.12h-610.56c-11.733 0-21.12 9.387-21.12 21.12v140.16h-114.987zM1107.84 135.771c-11.733 0-21.12 9.387-21.12 21.12v498.56c0 18.773-22.827 20.907-27.307 21.12h-170.027c-11.733 0-21.12 9.387-21.12 21.12s9.387 21.12 21.12 21.12h170.88c28.16-1.067 68.693-18.773 68.693-63.36v-498.773c0-11.52-9.387-20.907-21.12-20.907z" horiz-adv-x="1365" />
<glyph unicode="&#xe604;" d="M1029.547-203.216h-698.027c-34.987 0-63.36 28.373-63.36 63.36v873.387c0 34.987 28.373 63.36 63.36 63.36h697.813c34.987 0 63.36-28.373 63.36-63.36v-873.387c0.213-34.987-28.16-63.36-63.147-63.36zM331.52 754.651c-11.733 0-21.12-9.387-21.12-21.12v-873.387c0-11.733 9.387-21.12 21.12-21.12h697.813c11.733 0 21.12 9.387 21.12 21.12v873.387c0 11.733-9.387 21.12-21.12 21.12h-697.813zM679.253 362.758c-60.8 0-108.587 65.493-108.587 148.907 0 83.627 47.787 149.12 108.587 149.12s108.587-65.493 108.587-149.12c0-83.627-47.573-148.907-108.587-148.907zM679.253 618.331c-35.84 0-66.347-48.853-66.347-106.667s30.293-106.667 66.347-106.667c35.84 0 66.347 48.853 66.347 106.667s-30.293 106.667-66.347 106.667zM524.16 425.264h-83.84c-11.733 0-21.12 9.387-21.12 21.12s9.387 21.12 21.12 21.12h83.84c11.733 0 21.12-9.387 21.12-21.12 0-11.52-9.387-21.12-21.12-21.12zM521.387 559.238h-81.067c-11.733 0-21.12 9.387-21.12 21.12s9.387 21.12 21.12 21.12h81.067c11.733 0 21.12-9.387 21.12-21.12s-9.387-21.12-21.12-21.12zM917.973 427.184h-89.173c-11.733 0-21.12 9.387-21.12 21.12s9.387 21.12 21.12 21.12h89.173c11.733 0 21.12-9.387 21.12-21.12s-9.387-21.12-21.12-21.12zM917.973 559.238h-80.853c-11.733 0-21.12 9.387-21.12 21.12s9.387 21.12 21.12 21.12h80.853c11.733 0 21.12-9.387 21.12-21.12s-9.387-21.12-21.12-21.12zM939.947 161.798h-505.813c-11.733 0-21.12 9.387-21.12 21.12s9.387 21.12 21.12 21.12h505.813c11.733 0 21.12-9.387 21.12-21.12 0.213-11.52-9.387-21.12-21.12-21.12zM939.947 44.678h-505.813c-11.733 0-21.12 9.387-21.12 21.12s9.387 21.12 21.12 21.12h505.813c11.733 0 21.12-9.387 21.12-21.12s-9.387-21.12-21.12-21.12zM939.947-77.562h-505.813c-11.733 0-21.12 9.387-21.12 21.12s9.387 21.12 21.12 21.12h505.813c11.733 0 21.12-9.387 21.12-21.12s-9.387-21.12-21.12-21.12z" horiz-adv-x="1365" />
<glyph unicode="&#xe605;" d="M337.707 557.104c0 0-61.44 47.147-75.733 104.32 0 0-26.667-198.4 124.8-214.827 0 0 6.187 71.68-49.067 110.507zM337.707 407.771c0 0-61.44 46.933-75.733 104.32 0 0-26.667-198.4 124.8-214.827 0 0 6.187 71.68-49.067 110.507zM337.707 260.571c0 0-61.44 46.933-75.733 104.32 0 0-26.667-198.4 124.8-214.827 0 0 6.187 71.68-49.067 110.507zM337.707 90.758c0 0-61.44 46.933-75.733 104.32 0 0-26.667-198.4 124.8-214.827 0 0 6.187 71.68-49.067 110.507zM424.107 446.598c151.253 16.427 124.8 214.827 124.8 214.827-14.293-57.387-75.733-104.32-75.733-104.32-55.253-38.827-49.067-110.507-49.067-110.507zM473.173 407.771c-55.253-38.827-49.067-110.507-49.067-110.507 151.253 16.427 124.8 214.827 124.8 214.827-14.293-57.173-75.733-104.32-75.733-104.32zM473.173 260.571c-55.253-38.827-49.067-110.507-49.067-110.507 151.253 16.427 124.8 214.827 124.8 214.827-14.293-57.387-75.733-104.32-75.733-104.32zM473.173 90.758c-55.253-38.827-49.067-110.507-49.067-110.507 151.253 16.427 124.8 214.827 124.8 214.827-14.293-57.387-75.733-104.32-75.733-104.32zM411.307 538.758c90.027 85.973 6.187 237.227 6.187 237.227-106.453-149.333-6.187-237.227-6.187-237.227zM410.24-54.522c-9.6 0-17.493-7.893-17.493-17.493v-122.667c0-9.6 7.893-17.28 17.493-17.28s17.28 7.893 17.28 17.28v122.667c0.213 9.6-7.68 17.493-17.28 17.493zM898.347 523.611c0 0-37.973 67.413-28.8 125.653 0 0-102.187-172.16 30.507-246.613 0.213 0 33.92 63.36-1.707 120.96zM839.893 386.011c0 0-37.973 67.413-28.8 125.653 0 0-102.187-172.16 30.72-246.613 0 0.213 33.493 63.573-1.92 120.96zM782.080 250.758c0 0-37.973 67.2-28.8 125.653 0 0-102.187-172.16 30.507-246.613 0.213 0 33.92 63.573-1.707 120.96zM715.52 94.384c0 0-37.973 67.413-28.8 125.653 0 0-102.4-172.16 30.507-246.613 0.213 0.213 33.92 63.573-1.707 120.96zM934.613 387.931c145.707-44.373 199.040 148.693 199.040 148.693-35.627-47.147-110.507-66.347-110.507-66.347-66.133-14.080-88.533-82.347-88.533-82.347zM964.48 333.104c-66.133-14.080-88.533-82.347-88.533-82.347 145.707-44.373 199.040 148.693 199.040 148.693-35.413-47.36-110.507-66.347-110.507-66.347zM906.667 197.424c-65.92-14.080-88.533-82.347-88.533-82.347 145.707-44.373 199.040 148.693 199.040 148.693-35.413-47.147-110.507-66.347-110.507-66.347zM840.107 41.264c-66.133-14.080-88.533-82.347-88.533-82.347 145.707-44.16 199.040 148.693 199.040 148.693-35.413-47.147-110.507-66.347-110.507-66.347zM958.933 477.744c116.48 43.733 98.773 215.893 98.773 215.893-156.373-95.787-98.773-215.893-98.773-215.893zM725.333-67.536c-8.747 3.84-18.987-0.427-22.827-9.173l-48.213-112.853c-3.84-8.747 0.427-18.987 9.173-22.827s18.987 0.427 22.827 9.173l48 112.853c4.053 8.747 0 18.987-8.96 22.827z" horiz-adv-x="1365" />
<glyph unicode="&#xe606;" d="M405.333 415.878c-0.427 0-1.92 0-2.133 0-52.907 0-93.44 16.853-122.027 50.133-58.453 68.053-42.24 179.413-41.6 184.32 0.853 5.973 4.48 11.307 9.6 14.507s11.52 3.84 17.493 1.92c78.933-26.453 119.467-68.267 140.16-101.547 40.747 67.627 122.24 99.627 126.507 101.333 5.973 2.347 12.8 1.707 18.133-1.707 5.547-3.413 9.173-8.96 9.813-15.36 8.96-80-5.12-141.653-41.813-182.827-43.307-48.213-102.613-50.773-114.133-50.773zM278.613 617.904c-0.853-32.64 2.773-88.747 33.92-125.013 20.693-23.893 49.92-35.413 89.387-35.413h3.413c5.12 0 50.987 1.067 83.2 36.907 24.32 27.093 35.627 67.627 33.92 120.96-32-17.707-83.627-54.187-94.72-108.587-1.92-9.813-11.307-16.427-20.907-16.64-10.027 0.427-18.56 7.893-19.84 17.92-0.64 2.56-12.16 68.267-108.373 109.867zM405.333 254.811c-0.213 0-1.92 0-2.133 0-52.907 0-93.44 16.853-122.027 49.92-58.453 68.053-42.24 179.413-41.6 184.107 0.853 5.973 4.48 11.307 9.6 14.507s11.52 3.84 17.28 1.92c78.933-26.453 119.68-68.267 140.373-101.547 40.747 67.627 122.24 99.627 126.507 101.12 5.973 2.347 12.8 1.707 18.133-1.707 5.547-3.413 9.173-8.96 9.813-15.36 8.96-80-5.12-141.44-41.813-182.613-43.307-48-102.613-50.347-114.133-50.347zM278.613 456.624c-0.853-32.64 2.773-88.747 33.92-125.013 20.693-23.893 49.707-35.413 89.387-35.413h3.413c5.12 0 50.987 1.067 83.2 36.907 24.32 27.093 35.627 67.627 33.707 120.747-32-17.707-83.627-53.973-94.72-108.587-1.92-9.813-11.307-16.64-20.907-16.64-10.027 0.427-18.56 7.893-19.84 17.92-0.427 2.773-11.947 68.693-108.16 110.080zM405.333 95.024c-0.213 0-1.92 0-2.133 0-52.907 0-93.44 16.853-122.027 49.92-58.453 68.053-42.24 179.413-41.6 184.107 0.853 5.973 4.48 11.307 9.6 14.507s11.733 3.84 17.28 1.92c78.933-26.453 119.68-68.267 140.373-101.547 40.747 67.627 122.24 99.627 126.507 101.333 5.973 2.347 12.8 1.707 18.133-1.707 5.547-3.413 9.173-8.96 9.813-15.36 8.96-80-5.12-141.44-41.813-182.613-43.093-48-102.613-50.56-114.133-50.56zM278.613 297.051c-0.853-32.64 2.773-88.747 33.92-125.013 20.693-23.893 49.707-35.413 89.387-35.413h3.413c5.12 0 51.2 1.067 83.2 36.907 24.32 27.093 35.627 67.627 33.707 120.96-32-17.707-83.627-54.187-94.72-108.587-1.92-9.813-11.307-16.427-20.907-16.64-10.027 0.427-18.56 7.893-19.84 17.92-0.427 2.56-11.947 68.267-108.16 109.867zM405.333-61.136c-0.427 0-1.92 0-2.133 0-52.907 0-93.44 16.853-122.027 49.92-58.453 68.053-42.24 179.413-41.6 184.32 0.853 5.973 4.48 11.307 9.6 14.507s11.733 3.84 17.28 1.92c78.933-26.453 119.68-68.267 140.373-101.547 40.747 67.627 122.24 99.627 126.507 101.333 5.973 2.347 12.8 1.707 18.133-1.707 5.547-3.413 9.173-8.96 9.813-15.36 8.96-80-5.12-141.44-41.813-182.613-43.307-48.427-102.613-50.773-114.133-50.773zM278.613 140.678c-0.853-32.64 2.773-88.747 33.92-125.013 20.693-23.893 49.707-35.413 89.387-35.413h3.413c5.12 0 50.987 1.067 83.2 36.907 24.32 27.093 35.627 67.627 33.92 120.96-32-17.707-83.627-54.187-94.72-108.587-1.92-9.813-11.307-16.64-20.907-16.64-10.027 0.427-18.56 7.893-19.84 17.92-0.64 2.56-12.16 68.48-108.373 109.867zM409.173 537.051c-5.547 0-10.88 2.133-14.933 6.4-39.467 41.173-58.453 85.12-56.533 130.133 2.987 67.2 52.267 111.36 54.4 113.067 8.32 7.253 20.693 6.827 28.373-1.067 38.827-39.467 58.027-82.133 56.747-126.507-1.92-68.48-52.053-114.773-54.187-116.693-4.053-3.627-8.96-5.333-13.867-5.333zM405.76 739.931c-11.307-14.72-25.387-39.040-26.667-68.693-1.067-27.307 8.96-54.827 30.080-82.133 11.52 15.573 26.027 40.96 26.667 71.253 0.64 27.093-9.387 53.76-30.080 79.573zM404.053-202.362c-11.52 0-20.693 9.173-20.693 20.693v141.227c0 11.52 9.173 20.693 20.693 20.693s20.693-9.173 20.693-20.693v-141.227c0-11.52-9.173-20.693-20.693-20.693zM949.76 358.278c-36.053 0-62.507 12.373-63.573 12.8-47.573 19.84-78.933 51.413-92.373 93.44-27.52 85.547 31.36 182.187 33.92 186.453 3.2 5.12 8.533 8.747 14.507 9.6 6.4 0.853 12.16-1.067 16.853-5.12 62.293-55.467 83.2-109.867 89.173-148.693 57.173 40.96 133.333 43.52 151.040 43.52 0.213 0 4.693 0 4.907 0 6.4-0.213 12.373-3.413 16-8.747 3.627-5.12 4.907-11.947 2.987-17.92-43.307-143.787-127.147-165.333-173.44-165.333zM850.773 605.744c-13.653-29.867-32.427-82.987-17.707-128.64 9.813-30.293 32.64-52.693 69.76-68.053 1.067-0.427 20.48-9.387 46.72-9.387 53.973 0 96.64 37.12 124.16 107.733-37.76-3.84-98.56-17.067-129.707-62.507-5.76-8.32-16.64-11.307-25.813-7.040s-13.867 14.507-11.307 24.32c0.853 2.56 16.213 67.627-56.107 143.573zM886.613 210.011c-36.053 0-62.507 12.373-63.573 12.8-47.573 19.84-78.933 51.413-92.373 93.44-27.52 85.547 31.36 182.187 33.92 186.24 3.2 5.12 8.533 8.747 14.507 9.6 6.187 0.64 12.16-1.067 16.64-5.12 62.293-55.467 83.2-110.080 89.173-148.693 57.173 40.96 133.333 43.52 151.253 43.52 0.213 0 4.48 0 4.907 0 6.4-0.213 12.373-3.413 16-8.747 3.627-5.12 4.907-11.947 2.987-17.92-43.52-143.787-127.36-165.12-173.44-165.12zM787.413 457.478c-13.653-29.867-32.427-82.987-17.493-128.853 9.813-30.293 32.64-52.48 69.76-68.053 1.067-0.427 20.48-9.387 46.72-9.387 53.973 0 96.427 37.12 124.16 107.733-37.76-3.84-98.56-17.067-129.707-62.507-5.76-8.32-16.427-11.307-25.813-7.040-9.173 4.267-13.867 14.507-11.307 24.32 0.853 2.773 16 67.84-56.32 143.787zM823.893 63.238c-36.053 0-62.507 12.373-63.573 12.8-47.573 19.84-78.933 51.413-92.587 93.44-27.52 85.547 31.36 182.187 33.92 186.24 3.2 5.12 8.533 8.747 14.507 9.6 5.973 0.64 12.16-1.067 16.853-5.12 62.293-55.467 83.2-109.867 89.173-148.693 57.173 40.96 133.333 43.52 151.253 43.52 0.213 0 4.48 0 4.907 0 6.4-0.213 12.373-3.413 16-8.747 3.627-5.12 4.907-11.947 2.987-17.92-43.307-143.787-127.36-165.12-173.44-165.12zM724.693 310.704c-13.653-29.867-32.427-82.987-17.707-128.64 9.813-30.293 32.64-52.693 69.76-68.053 1.067-0.427 20.48-9.387 46.72-9.387 53.973 0 96.427 37.12 124.16 107.733-37.76-3.84-98.347-17.067-129.707-62.72-5.76-8.32-16.427-11.307-25.813-7.040-9.173 4.267-13.867 14.507-11.307 24.32 1.067 2.56 16.213 67.84-56.107 143.787zM762.453-80.549c-35.84 0-62.507 12.373-63.573 12.8-47.573 19.84-78.933 51.413-92.373 93.44-27.52 85.547 31.36 182.187 33.92 186.24 3.2 5.12 8.533 8.747 14.507 9.6 6.187 0.64 12.16-1.067 16.853-5.12 62.293-55.467 83.2-110.080 89.173-148.693 57.173 40.96 133.333 43.52 151.040 43.52 0.213 0 4.693 0 4.907 0 6.4-0.213 12.373-3.413 16-8.747 3.627-5.12 4.907-11.947 2.987-17.92-43.307-143.573-127.147-165.12-173.44-165.12zM663.467 167.131c-13.653-29.867-32.427-82.987-17.707-128.64 9.813-30.293 32.64-52.693 69.76-68.053 1.067-0.427 20.693-9.387 46.72-9.387 53.973 0 96.427 37.12 123.947 107.733-37.76-3.84-98.347-17.067-129.493-62.507-5.76-8.32-16.64-11.307-25.813-7.040s-13.867 14.507-11.307 24.32c1.067 2.347 16.213 67.413-56.107 143.573zM947.2 478.384c-8.32 0-16.213 5.12-19.413 13.44-20.053 53.547-20.267 101.12-0.853 141.867 29.227 60.587 91.733 81.707 94.507 82.56 10.453 3.413 21.76-1.92 25.813-12.16 20.267-51.627 21.12-98.347 2.347-138.88-28.587-62.080-93.013-84.907-95.787-85.76-2.133-0.64-4.48-1.067-6.613-1.067zM1015.68 668.038c-16.213-9.173-38.827-25.813-51.413-52.693-11.733-24.747-13.227-54.187-4.48-87.253 16.64 9.6 39.893 27.307 52.48 55.040 11.093 24.533 12.16 52.907 3.413 84.907zM652.373-199.376c-2.773 0-5.547 0.427-8.107 1.707-10.453 4.48-15.36 16.64-10.88 27.093l55.467 129.92c4.48 10.453 16.64 15.36 27.093 10.88s15.36-16.64 10.88-27.093l-55.467-129.92c-3.413-7.893-11.093-12.587-18.987-12.587z" horiz-adv-x="1365" />
<glyph unicode="&#xe607;" d="M904.533-176.762h-780.8c-12.8 0-21.333-8.533-21.333-21.333s8.533-21.333 21.333-21.333h780.8c12.8 0 21.333 8.533 21.333 21.333 0 8.533-8.533 21.333-21.333 21.333zM567.467 569.904l-25.6 51.2c-17.067 17.067-46.933 17.067-64 0l-21.333-51.2-162.133-362.667-221.867 170.667 115.2-477.867c0 0 8.533-34.133 51.2-34.133 89.6 0 311.467 0 558.933 0 38.4 0 46.933 34.133 46.933 34.133l110.933 477.867-221.867-170.667c0 0-102.4 230.4-166.4 362.667zM102.4 424.838c0-28.277-22.923-51.2-51.2-51.2s-51.2 22.923-51.2 51.2c0 28.277 22.923 51.2 51.2 51.2s51.2-22.923 51.2-51.2zM563.2 710.704c0-28.277-22.923-51.2-51.2-51.2s-51.2 22.923-51.2 51.2c0 28.277 22.923 51.2 51.2 51.2s51.2-22.923 51.2-51.2zM1024 424.838c0-28.277-22.923-51.2-51.2-51.2s-51.2 22.923-51.2 51.2c0 28.277 22.923 51.2 51.2 51.2s51.2-22.923 51.2-51.2z" />
<glyph unicode="&#xe608;" d="M1018.453 601.904l-762.667-0.64 384.213-302.72 378.453 303.36zM1060.267 580.571l-406.827-325.973c-3.84-3.2-8.747-4.693-13.44-4.693s-9.387 1.493-13.227 4.48l-413.44 326.187v-497.28c0-9.6 7.68-17.28 17.28-17.28h478.293c11.733 0 21.333-9.6 21.333-21.333s-9.6-21.333-21.333-21.333h-478.293c-33.067 0-59.947 26.88-59.947 59.947v501.333c0 33.067 26.88 59.947 59.947 59.947h814.507c33.067 0 59.947-26.88 59.947-59.947v-133.12c0-11.733-9.6-21.333-21.333-21.333s-21.333 9.6-21.333 21.333v130.773l-2.133-1.707zM1048.32 21.638h-124.16l0.64-1.707c8.32-18.133 25.173-34.773 58.88-36.267 0.64 0 1.28 0 2.133-0.213 0.64 0 1.28 0.213 1.92 0.213 36.053 1.493 52.053 19.627 59.093 34.773l1.493 3.2zM1092.053 18.438c-8.32-32-35.2-72.747-98.773-77.227-1.493-0.427-3.2-0.64-4.693-0.64h-5.973c-1.707 0-3.413 0.213-4.907 0.64-49.28 3.413-85.333 32.427-98.133 78.507l-0.64 1.92h-80c-6.613 0-12.8 2.987-16.853 8.32s-5.333 11.947-3.84 18.347l42.24 163.2c11.52 113.92 73.6 183.893 165.76 183.893 94.293 0 161.067-73.6 170.24-187.733l36.053-154.453c1.707-2.987 2.773-6.613 2.773-10.453 0-11.733-9.387-21.333-21.333-21.333-0.213 0-0.64 0-0.853 0h-80.64l-0.427-2.987zM826.667 64.304h319.787l-31.787 136.96c-6.187 74.88-42.88 151.467-128.213 151.467-94.507 0-118.187-93.227-123.733-148.907l-36.053-139.52z" horiz-adv-x="1365" />
<glyph unicode="&#xe609;" d="M512 787.504c12.8 0 21.333-8.533 21.333-21.333v-968.533c0-12.8-8.533-21.333-21.333-21.333s-21.333 8.533-21.333 21.333v972.8c4.267 8.533 12.8 17.067 21.333 17.067zM512 787.504c4.267 0 8.533 0 12.8-4.267l187.733-187.733c8.533-8.533 8.533-21.333 0-29.867s-21.333-8.533-29.867 0l-170.667 174.933-170.667-174.933c-8.533-8.533-21.333-8.533-29.867 0s-8.533 21.333 0 29.867l187.733 187.733c4.267 4.267 8.533 4.267 12.8 4.267z" />
<glyph unicode="&#xe60a;" d="M516.267 800.304c25.6 0 42.667-17.067 42.667-42.667v-934.4c0-25.6-17.067-42.667-42.667-42.667s-42.667 17.067-42.667 42.667v934.4c0 25.6 21.333 42.667 42.667 42.667zM516.267 800.304c12.8 0 21.333-4.267 29.867-12.8l179.2-179.2c17.067-17.067 17.067-42.667 0-59.733s-42.667-17.067-59.733 0l-149.333 149.333-149.333-149.333c-17.067-17.067-42.667-17.067-59.733 0s-17.067 42.667 0 59.733l179.2 179.2c8.533 8.533 21.333 12.8 29.867 12.8z" />
<glyph unicode="&#xe60b;" d="M512-223.696c-281.6 0-512 230.4-512 512s230.4 516.267 512 516.267 512-230.4 512-512-226.133-516.267-512-516.267zM512 719.238c-234.667 0-426.667-192-426.667-426.667s192-426.667 426.667-426.667 426.667 192 426.667 426.667-187.733 426.667-426.667 426.667zM443.733 386.438c21.333 21.333 25.6 59.733 4.267 81.067l-55.467 55.467c-21.333 21.333-59.733 17.067-81.067-4.267l-34.133-34.133c-29.867-29.867-38.4-76.8-17.067-106.667 85.333-136.533 209.067-260.267 345.6-345.6 34.133-21.333 76.8-12.8 106.667 17.067l34.133 34.133c21.333 21.333 25.6 59.733 4.267 81.067l-55.467 55.467c-21.333 21.333-55.467 17.067-81.067-4.267l-21.333-21.333c-64 51.2-123.733 110.933-174.933 174.933l25.6 17.067z" />
<glyph unicode="&#xe60c;" d="M10.445 270.657l440.115-440.115c12.083-12.083 31.744-11.878 43.827 0.205s12.288 31.744 0.205 43.827l-385.638 385.434 882.893 1.843c16.998 0 30.72 13.722 30.72 30.925 0 8.397-3.482 16.179-9.011 21.709s-13.107 8.806-21.709 8.806l-886.784-2.253 389.53 389.53c12.083 12.083 11.878 31.744-0.205 43.827s-31.744 12.288-43.827 0.205l-440.115-440.32c-12.083-12.083-12.083-31.539 0-43.622z" />
<glyph unicode="&#xe60d;" d="M1105.067 249.904h-844.8l0.427-2.347 77.013-424.32 689.067-3.84 77.653 426.667 0.64 3.84zM216.32 249.904h-24.32c-11.733 0-21.333 9.6-21.333 21.333v85.333c0 11.733 9.6 21.333 21.333 21.333h981.333c11.733 0 21.333-9.6 21.333-21.333v-85.333c0-11.733-9.6-21.333-21.333-21.333h-25.6l-0.64-7.68-80.64-444.16c-1.92-10.027-10.667-17.493-20.907-17.493h-725.547c-10.24 0-19.2 7.467-20.907 17.493l-80.64 443.52-2.133 8.32zM213.333 292.571h938.667v42.667h-938.667v-42.667zM884.053 377.904c51.84 35.413 77.227 67.627 77.653 98.133 0.213 23.253-14.933 38.4-24.107 43.733-3.84 2.133-8.32 3.2-12.587 2.56-53.333-7.467-84.693-16.427-134.613-37.76-2.133-20.693 5.547-18.347-13.44-48.427 56.107 27.947 78.72 34.987 144.213 45.867 0.64-1.493 1.28-3.2 1.28-5.547 0-8.32-11.093-42.667-111.573-98.347l73.173-0.213zM640 377.904c100.48 55.68 111.573 90.027 111.573 98.347 0 2.347-0.64 4.053-1.28 5.547-141.227-23.467-256.427-102.827-257.92-103.893h-72.747c7.253 4.907 182.187 122.88 334.72 144.213 4.267 0.64 8.747-0.213 12.587-2.56 8.96-5.333 24.32-20.48 24.107-43.733-0.427-30.293-25.813-62.72-77.44-97.92h-73.6zM293.76 377.904l134.4 333.227c4.48 10.88 17.067 16.213 27.733 11.947 10.88-4.48 16.213-16.853 11.733-27.733l-128-317.44h-45.867zM1059.413 377.904l-128 317.44c-4.48 10.88 0.853 23.253 11.733 27.733 10.667 4.267 23.253-0.853 27.733-11.733l134.187-333.44h-45.653z" horiz-adv-x="1365" />
<glyph unicode="&#xe60e;" d="M672-208.549c-273.707 0-491.947 218.24-496.64 496.64-2.347 134.613 49.493 262.4 146.133 360.107 96 97.067 223.36 151.68 358.827 154.027h8.96c273.707 0 491.947-218.24 496.64-496.64 2.347-134.613-49.493-262.4-146.133-360.107-96-97.067-223.36-151.68-358.827-154.027h-8.96zM689.067 759.771h-8.32c-259.627-4.693-467.413-215.893-462.933-471.040 4.48-254.933 203.947-454.827 454.187-454.827h8.32c124.16 2.133 241.28 52.48 329.173 141.44 88.533 89.387 136.107 206.507 133.973 329.387-4.693 255.147-204.16 455.040-454.4 455.040zM680.533 209.584c-11.733 0-21.333 9.6-21.333 21.333v308.053c0 11.733 9.6 21.333 21.333 21.333s21.333-9.6 21.333-21.333v-308.053c0-11.733-9.6-21.333-21.333-21.333zM680.533 120.838v0c-0.213 0-0.64 0-0.853 0-24.32-0.427-43.733-20.48-43.307-44.8 0.427-24.107 20.053-43.307 43.947-43.307 0.213 0 0.427 0 0.853 0 24.32 0.427 43.733 20.48 43.307 44.8-0.427 24.107-20.053 43.307-43.947 43.307v0z" horiz-adv-x="1365" />
<glyph unicode="&#xe60f;" d="M1037.013 21.638h-804.907c-31.573 0-57.173 25.813-57.173 57.387v495.573c0 31.573 25.6 57.173 57.173 57.173h804.907c31.573 0 57.173-25.6 57.173-57.173v-495.573c0-31.573-25.6-57.387-57.173-57.387zM1029.12 593.584h-759.68l2.773-2.133 383.36-302.080 373.547 304.213zM1055.36 565.211l-4.693-3.84-382.507-311.467c-3.413-2.987-7.68-4.267-12.16-4.267-4.267 0-8.32 1.28-11.947 4.053l-427.093 337.067c-2.347-3.2-3.84-7.893-3.84-12.16v-495.573c0-10.453 8.533-18.987 18.987-18.987h804.907c10.453 0 18.987 8.533 18.987 18.987v481.92l-0.64 4.267z" horiz-adv-x="1365" />
<glyph unicode="&#xe610;" d="M678.4-163.962c-4.267 0-8.533 0-12.8 4.267-21.333 12.8-499.2 294.4-499.2 640 0 192 132.267 290.133 264.533 290.133 93.867 0 200.533-51.2 247.467-166.4 46.933 115.2 157.867 170.667 251.733 170.667 128 0 260.267-93.867 260.267-268.8 0-324.267-477.867-652.8-499.2-665.6-4.267-4.267-8.533-4.267-12.8-4.267z" horiz-adv-x="1365" />
<glyph unicode="&#xe611;" d="M678.187-162.469c-7.253 0-14.72 1.92-21.333 5.76-20.053 11.52-489.6 286.293-489.6 629.12 0 196.48 138.453 299.307 275.413 299.307 86.187 0 180.267-41.6 235.52-131.84 56.32 92.16 152.747 134.4 241.28 134.4 133.973 0 269.653-95.787 269.653-278.827 0-318.293-467.2-637.44-487.253-650.667-7.040-4.693-15.36-7.253-23.68-7.253zM442.667 686.598c-91.733 0-190.293-66.987-190.293-214.187 0-255.147 332.587-483.413 424.107-541.44 90.667 65.92 427.52 326.827 427.52 564.48 0 132.907-95.787 193.493-184.533 193.493-77.44 0-176-46.72-199.253-177.92-3.627-20.267-21.333-35.2-41.813-35.2v0c-20.693 0-38.4 14.933-41.813 35.2-23.040 129.707-118.827 175.573-193.92 175.573z" horiz-adv-x="1365" />
<glyph unicode="&#xe612;" d="M678.4-163.962c-4.267 0-8.533 0-12.8 4.267-21.333 12.8-499.2 294.4-499.2 640 0 192 132.267 290.133 264.533 290.133 93.867 0 200.533-51.2 247.467-166.4 46.933 115.2 157.867 170.667 251.733 170.667 128 0 260.267-93.867 260.267-268.8 0-324.267-477.867-652.8-499.2-665.6-4.267-4.267-8.533-4.267-12.8-4.267zM435.2 727.771c-106.667 0-221.867-76.8-221.867-247.467 0-294.4 396.8-550.4 469.333-597.333 72.533 51.2 469.333 349.867 469.333 622.933 0 157.867-110.933 226.133-217.6 226.133-89.6 0-204.8-55.467-230.4-204.8 0-8.533-8.533-17.067-21.333-17.067v0c-8.533 0-21.333 8.533-21.333 17.067-29.867 149.333-140.8 200.533-226.133 200.533z" horiz-adv-x="1365" />
<glyph unicode="&#xe613;" d="M367.787 569.904c8.533-8.533 21.333-8.533 29.867 4.267l123.733 140.8v-661.333c0-12.8 8.533-21.333 21.333-21.333s21.333 8.533 21.333 21.333v665.6l115.2-157.867c8.533-8.533 21.333-12.8 29.867-4.267s12.8 21.333 4.267 29.867l-149.333 200.533c-4.267 4.267-8.533 8.533-17.067 8.533v0c-4.267 0-12.8-4.267-17.067-8.533l-162.133-192c-8.533-4.267-8.533-17.067 0-25.6zM997.547 15.238c-8.533 8.533-21.333 8.533-29.867-4.267l-123.733-140.8v661.333c0 12.8-8.533 21.333-21.333 21.333s-21.333-8.533-21.333-21.333v-665.6l-115.2 157.867c-8.533 8.533-21.333 12.8-29.867 4.267s-12.8-21.333-4.267-29.867l149.333-200.533c4.267-4.267 8.533-8.533 17.067-8.533v0c4.267 0 12.8 4.267 17.067 8.533l162.133 192c8.533 4.267 8.533 17.067 0 25.6z" horiz-adv-x="1365" />
<glyph unicode="&#xe614;" d="M680.533-202.362c-275.2 0-499.2 224-499.2 499.2s224 499.2 499.2 499.2 499.2-224 499.2-499.2-224-499.2-499.2-499.2zM680.533 754.438c-252.373 0-457.6-205.227-457.6-457.6s205.227-457.6 457.6-457.6c252.373 0 457.6 205.44 457.6 457.6 0 252.373-205.227 457.6-457.6 457.6zM599.040 22.278c-5.333 0-10.667 2.133-14.72 6.187-8.107 8.107-8.107 21.333 0 29.44l238.933 238.933-238.933 238.933c-8.107 8.107-8.107 21.333 0 29.44s21.333 8.107 29.44 0l253.653-253.653c8.107-8.107 8.107-21.333 0-29.44l-253.653-253.653c-4.053-4.053-9.387-6.187-14.72-6.187z" horiz-adv-x="1365" />
<glyph unicode="&#xe615;" d="M971.819 207.238h9.515v533.589c0 35.157-29.824 63.744-64.981 63.744h-154.752c-35.157 0-78.933-28.587-78.933-63.744v-362.923h-575.019c-35.157 0-64.981-18.091-64.981-53.248v-33.664c0-35.157 29.824-83.755 64.981-83.755h5.077c13.312-42.667 88.235-285.952 428.117-297.131-10.283-52.437-29.696-91.861-43.861-91.861-11.776 0-21.333-7.040-21.333-18.816s9.557-18.859 21.333-18.859h461.013c7.509 0 14.421 3.925 18.304 10.325 3.84 6.4 4.053 14.379 0.555 20.992-1.365 2.645-137.088 253.397-5.419 404.608 0.128 0.256 0.171-9.259 0.384-9.259zM938.667 249.904h-213.333v384h213.333v-384zM761.6 761.904h154.752c11.605 0 22.315-9.472 22.315-21.077v-64.256h-213.333v64.256c0 11.605 24.661 21.077 36.267 21.077zM85.333 290.992v33.664c0 11.605 10.709 10.581 22.315 10.581h575.019v-85.333h-575.019c-11.605 0-22.315 29.44-22.315 41.088zM924.288-176.762h-370.56c21.248 38.443 30.293 92.373 33.28 114.944 0.811 6.101-1.024 12.245-5.077 16.896s-9.856-2.688-16.043-2.688c-319.147 0-393.899 212.224-409.6 254.891h762.069c-93.184-128.043-26.624-309.675 5.931-384.043z" />
<glyph unicode="&#xe616;" d="M964.911-203.465c-11.55 0-20.902 9.353-20.902 20.902v690.089c0 139.089-115.040 252.252-256.452 252.252h-13.026c-143.921 0-261.026-113.163-261.026-252.252v-690.089c0-11.55-9.348-20.902-20.902-20.902s-20.902 9.353-20.902 20.902v690.089c0 162.157 135.842 294.057 302.831 294.057h13.026c164.461 0 298.257-131.9 298.257-294.057v-690.089c0-11.55-9.348-20.902-20.902-20.902zM943.52 517.612h-543.447c-11.554 0-20.902 9.348-20.902 20.902 0 11.55 9.346 20.902 20.902 20.902h543.45c11.554 0 20.902-9.353 20.902-20.902-0.002-11.554-9.35-20.902-20.905-20.902zM1082.895-212.161h-804.723c-34.577 0-62.705 28.13-62.705 62.705v306.549c0 34.579 28.13 62.705 62.705 62.705h804.723c34.575 0 62.705-28.126 62.705-62.705v-306.547c0-34.577-28.13-62.707-62.705-62.707zM278.172 177.994c-11.535 0-20.902-9.367-20.902-20.902v-306.547c0-11.529 9.367-20.902 20.902-20.902h804.723c11.533 0 20.902 9.372 20.902 20.902v306.549c0 11.533-9.367 20.902-20.902 20.902h-804.723zM574.268-197.788c-11.554 0-20.902 9.348-20.902 20.902v367.087c0 11.554 9.346 20.902 20.902 20.902 11.554 0 20.902-9.348 20.902-20.902v-367.087c0-11.554-9.348-20.902-20.902-20.902zM783.287-197.788c-11.554 0-20.902 9.348-20.902 20.902v367.087c0 11.554 9.346 20.902 20.902 20.902 11.554 0 20.902-9.348 20.902-20.902v-367.087c0-11.554-9.348-20.902-20.902-20.902z" horiz-adv-x="1365" />
<glyph unicode="&#xe617;" d="M1029.76 620.038h-881.067c-42.88 0-77.653-34.773-77.653-77.653v-466.347c0-42.88 34.773-77.653 77.653-77.653h881.067c42.88 0 77.653 34.773 77.653 77.653v466.133c0.213 42.88-34.773 77.867-77.653 77.867zM278.4 412.678h-51.84c-14.293 0-25.813 11.52-25.813 25.813s11.52 25.813 25.813 25.813h51.84c14.293 0 25.813-11.52 25.813-25.813s-11.52-25.813-25.813-25.813zM574.72 140.678c-90.24 0-163.627 73.387-163.627 163.627s73.387 163.627 163.627 163.627c90.24 0 163.627-73.387 163.627-163.627s-73.387-163.627-163.627-163.627zM952.107 153.478h-51.84c-14.293 0-25.813 11.52-25.813 25.813s11.52 25.813 25.813 25.813h51.84c14.293 0 25.813-11.52 25.813-25.813 0-14.080-11.52-25.813-25.813-25.813zM1155.627 512.731c0-128.853 0-369.707 0-454.613 0-121.6-125.653-111.573-125.653-111.573h-854.187c5.333-37.76 37.547-52.053 76.587-52.053h881.067c42.88 0 77.653 34.773 77.653 77.653v466.347c0.213 35.2-23.467 64.64-55.467 74.24zM1262.933 407.984c0-126.507 0-363.093 0-450.56 0-121.6-125.653-111.573-125.653-111.573h-855.040c9.813-31.787 39.040-55.040 74.027-55.040h881.067c42.88 0 77.653 34.773 77.653 77.653v466.56c-0.213 33.707-21.973 62.080-52.053 72.96z" horiz-adv-x="1365" />
<glyph unicode="&#xe618;" d="M789.333-48.762h-725.333c-35.285 0-64 28.715-64 64v384c0 35.285 28.715 64 64 64h725.333c35.285 0 64-28.715 64-64v-384c0-35.285-28.715-64-64-64zM64 420.571c-11.733 0-21.333-9.557-21.333-21.333v-384c0-11.776 9.6-21.333 21.333-21.333h725.333c11.733 0 21.333 9.557 21.333 21.333v384c0 11.776-9.6 21.333-21.333 21.333h-725.333zM414.677 68.571c-74.24 0-134.656 60.416-134.656 134.656s60.416 134.656 134.656 134.656c74.24 0 134.656-60.416 134.656-134.656s-60.416-134.656-134.656-134.656zM414.677 295.216c-50.731 0-91.989-41.259-91.989-91.989s41.301-91.989 91.989-91.989c50.688 0 91.989 41.259 91.989 91.989s-41.301 91.989-91.989 91.989zM874.667-134.096h-725.333c-35.285 0-64 28.715-64 64v21.333c0 11.776 9.557 21.333 21.333 21.333s21.333-9.557 21.333-21.333v-21.333c0-11.776 9.6-21.333 21.333-21.333h725.333c11.733 0 21.333 9.557 21.333 21.333v384c0 11.776-9.6 21.333-21.333 21.333h-21.333c-11.776 0-21.333 9.557-21.333 21.333s9.557 21.333 21.333 21.333h21.333c35.285 0 64-28.715 64-64v-384c0-35.285-28.715-64-64-64zM960-219.429h-725.333c-35.285 0-64 28.715-64 64v21.333c0 11.776 9.557 21.333 21.333 21.333s21.333-9.557 21.333-21.333v-21.333c0-11.776 9.6-21.333 21.333-21.333h725.333c11.733 0 21.333 9.557 21.333 21.333v384c0 11.776-9.6 21.333-21.333 21.333h-21.333c-11.776 0-21.333 9.557-21.333 21.333s9.557 21.333 21.333 21.333h21.333c35.285 0 64-28.715 64-64v-384c0-35.285-28.715-64-64-64zM725.333 79.238h-42.667c-11.776 0-21.333 9.557-21.333 21.333s9.557 21.333 21.333 21.333h42.667c11.776 0 21.333-9.557 21.333-21.333s-9.557-21.333-21.333-21.333zM170.667 292.571h-42.667c-11.776 0-21.333 9.557-21.333 21.333s9.557 21.333 21.333 21.333h42.667c11.776 0 21.333-9.557 21.333-21.333s-9.557-21.333-21.333-21.333z" />
<glyph unicode="&#xe619;" d="M533.76 506.758c-5.12 0-10.027 1.92-14.080 5.547-29.653 27.307-25.6 82.56-13.653 111.147 7.040 16.853 10.453 25.387-7.467 55.68-23.893 40.96 2.56 85.973 21.973 106.24 7.893 8.32 20.907 8.533 29.227 0.64 8.107-7.893 8.533-20.907 0.64-29.227v0c-0.427-0.213-30.080-32.853-16.213-56.32 26.24-44.587 20.48-67.413 10.027-92.587-7.467-17.92-9.387-53.12 3.627-65.067 8.32-7.68 8.96-20.907 1.067-29.227-4.053-4.48-9.6-6.827-15.147-6.827zM673.707 506.758c-5.12 0-10.027 1.92-14.080 5.547-29.653 27.307-25.6 82.56-13.653 111.147 7.040 16.853 10.453 25.387-7.467 55.68-24.107 40.747 2.56 85.76 21.973 106.027 7.893 8.32 21.12 8.533 29.227 0.64 8.32-7.893 8.533-20.907 0.64-29.227-0.427-0.64-30.293-32.427-16.213-56.32 26.24-44.587 20.48-67.413 10.027-92.8-7.467-17.92-9.387-53.12 3.413-65.067 8.32-7.68 8.96-20.907 1.067-29.227-3.84-4.053-9.387-6.4-14.933-6.4zM815.36 506.758c-5.12 0-10.027 1.92-14.080 5.547-29.44 27.307-25.6 82.56-13.653 111.147 7.040 17.067 10.667 25.6-7.253 55.893-24.107 40.747 2.347 85.76 21.76 106.027 7.893 8.32 20.907 8.533 29.227 0.64 8.107-7.893 8.533-20.907 0.64-29.227-0.853-0.853-30.080-32.64-16-56.32 26.453-44.587 20.48-67.413 9.813-92.8-7.467-17.92-9.173-53.12 3.627-64.853 8.32-7.68 8.96-20.907 1.067-29.227-4.053-4.48-9.6-6.827-15.147-6.827zM680.533 49.584c-206.72 0-375.467 161.92-384 368.853-0.213 5.547 1.92 11.093 5.76 15.147s9.387 6.4 14.933 6.4h726.4c5.547 0 11.093-2.347 14.933-6.4s5.973-9.6 5.76-15.147c-8.32-206.72-177.067-368.853-383.787-368.853zM339.627 398.598c17.92-174.080 163.84-307.413 340.907-307.413 177.28 0 323.2 133.333 340.907 307.413h-681.813zM395.733-202.362c-2.133 0-4.267 0.213-6.187 1.067-10.88 3.413-16.853 15.147-13.44 26.027l93.227 292.693c3.413 10.88 15.147 17.067 26.027 13.44 10.88-3.413 16.853-15.147 13.44-26.027l-93.227-292.693c-2.987-8.96-11.093-14.507-19.84-14.507zM965.333-202.362c-8.747 0-16.853 5.547-19.84 14.507l-93.227 292.693c-3.413 10.88 2.56 22.613 13.44 26.027 10.667 3.627 22.613-2.56 26.027-13.44l93.227-292.693c3.413-10.88-2.56-22.613-13.44-26.027-1.92-0.853-4.053-1.067-6.187-1.067zM925.653-134.949h-505.813c-11.52 0-20.693 9.173-20.693 20.693s9.173 20.693 20.693 20.693h505.813c11.52 0 20.693-9.173 20.693-20.693 0.213-11.52-9.173-20.693-20.693-20.693z" horiz-adv-x="1365" />
<glyph unicode="&#xe61a;" d="M1003.008-219.429c-11.776 0-21.333 9.557-21.333 21.333v274.987c0 11.819-9.643 21.461-21.461 21.461h-929.323c-11.776 0-21.333 9.557-21.333 21.333s9.557 21.333 21.333 21.333h929.323c35.371 0 64.128-28.757 64.128-64.128v-274.987c0-11.776-9.557-21.333-21.333-21.333zM20.992-219.429c-11.776 0-21.333 9.557-21.333 21.333v666.667c0 11.776 9.557 21.333 21.333 21.333s21.333-9.557 21.333-21.333v-666.667c0-11.776-9.515-21.333-21.333-21.333zM996.352-40.528h-971.349c-11.776 0-21.333 9.557-21.333 21.333s9.557 21.333 21.333 21.333h971.349c11.776 0 21.333-9.557 21.333-21.333s-9.557-21.333-21.333-21.333zM297.557 109.915c-11.776 0-21.333 9.557-21.333 21.333v43.989c0 11.776-9.6 21.333-21.333 21.333h-225.365c-11.776 0-21.333 9.557-21.333 21.333s9.557 21.333 21.333 21.333h225.323c35.285 0 64-28.715 64-64v-43.989c0.043-11.819-9.515-21.333-21.291-21.333z" />
<glyph unicode="&#xe61b;" d="M870.4-193.402h-540.587c-34.347 0-62.293 27.947-62.293 62.293v644.907c0 11.52 9.387 20.693 20.693 20.693h623.787c11.52 0 20.693-9.387 20.693-20.693v-644.693c0.213-34.56-27.947-62.507-62.293-62.507zM308.907 492.891v-623.787c0-11.52 9.387-20.693 20.693-20.693h540.8c11.52 0 20.693 9.387 20.693 20.693v623.787h-582.187zM1029.973 14.598h-114.773c-11.52 0-20.693 9.387-20.693 20.693s9.387 20.693 20.693 20.693h114.56c11.52 0 20.693 9.387 20.693 20.693v284.587c0 11.52-9.387 20.693-20.693 20.693h-114.56c-11.52 0-20.693 9.387-20.693 20.693 0 11.52 9.387 20.693 20.693 20.693h114.56c34.347 0 62.293-27.947 62.293-62.293v-284.16c0.213-34.347-27.733-62.293-62.080-62.293zM434.987-60.709c-11.52 0-20.693 9.387-20.693 20.693v421.12c0 11.52 9.387 20.693 20.693 20.693 11.52 0 20.693-9.387 20.693-20.693v-421.12c0.213-11.52-9.173-20.693-20.693-20.693zM600.107-60.709c-11.52 0-20.693 9.387-20.693 20.693v421.12c0 11.52 9.387 20.693 20.693 20.693s20.693-9.387 20.693-20.693v-421.12c0-11.52-9.173-20.693-20.693-20.693zM765.227-60.709c-11.52 0-20.693 9.387-20.693 20.693v421.12c0 11.52 9.387 20.693 20.693 20.693s20.693-9.387 20.693-20.693v-421.12c0-11.52-9.173-20.693-20.693-20.693zM333.653 569.904c-2.133 6.827-3.627 13.867-3.627 21.547 0 49.92 54.4 87.68 103.040 62.72 5.333-2.773 11.52-3.2 16.853-0.853 5.547 2.133 9.813 6.4 11.947 11.947 18.56 48.64 64 80.213 115.627 80.213s96.853-31.36 115.413-79.573c2.133-5.547 6.4-9.813 11.947-11.947 5.333-2.133 11.52-1.92 16.853 0.853 13.653 6.827 27.52 10.24 41.6 10.24 52.053 0 94.293-42.24 94.293-94.293 0-0.213 0-0.427 0-0.64h41.6c0 0.213 0 0.427 0 0.64 0 74.88-61.013 135.893-135.893 135.893-13.653 0-27.093-2.133-40.32-6.4-28.587 53.547-83.627 87.040-145.493 87.040-61.013 0-117.333-34.56-145.707-87.68-10.24 2.987-20.48 4.693-30.933 4.693-62.080 0-112.427-50.347-112.427-112.427 0-7.253 0.853-14.507 2.133-21.547h43.093z" horiz-adv-x="1365" />
<glyph unicode="&#xe61c;" d="M551.68 449.584h-111.573c-14.507 0-26.453 11.733-26.453 26.453 0 14.507 11.733 26.453 26.453 26.453h111.573c14.507 0 26.453-11.733 26.453-26.453-0.213-14.72-11.947-26.453-26.453-26.453zM551.68-31.269h-111.573c-14.507 0-26.453 11.733-26.453 26.453s11.733 26.453 26.453 26.453h111.573c14.507 0 26.453-11.733 26.453-26.453s-11.947-26.453-26.453-26.453zM174.507 449.584h-98.987c-14.507 0-26.453 11.733-26.453 26.453 0 14.507 11.733 26.453 26.453 26.453h98.987c14.507 0 26.453-11.733 26.453-26.453s-11.947-26.453-26.453-26.453zM174.507-31.269h-98.987c-14.507 0-26.453 11.733-26.453 26.453s11.947 26.453 26.453 26.453h98.987c14.507 0 26.453-11.733 26.453-26.453s-11.947-26.453-26.453-26.453zM1281.92 449.584h-98.987c-14.507 0-26.453 11.733-26.453 26.453 0 14.507 11.733 26.453 26.453 26.453h98.987c14.507 0 26.453-11.733 26.453-26.453s-11.733-26.453-26.453-26.453zM1281.92-31.269h-98.987c-14.507 0-26.453 11.733-26.453 26.453s11.733 26.453 26.453 26.453h98.987c14.507 0 26.453-11.733 26.453-26.453s-11.733-26.453-26.453-26.453zM929.707 449.584h-111.573c-14.507 0-26.453 11.733-26.453 26.453 0 14.507 11.733 26.453 26.453 26.453h111.573c14.507 0 26.453-11.733 26.453-26.453s-11.947-26.453-26.453-26.453zM929.707-31.269h-111.573c-14.507 0-26.453 11.733-26.453 26.453s11.733 26.453 26.453 26.453h111.573c14.507 0 26.453-11.733 26.453-26.453s-11.947-26.453-26.453-26.453zM401.92-198.096c-14.507 0-26.453 11.733-26.453 26.453v710.613l-77.227 83.413-75.733-83.413v-710.827c0-14.507-11.733-26.453-26.453-26.453-14.507 0-26.453 11.733-26.453 26.453v721.067c0 6.613 2.347 12.8 6.827 17.707l101.973 112.213c4.907 5.547 11.947 8.533 19.413 8.533 0 0 0 0 0 0 7.253 0 14.293-2.987 19.413-8.533l103.893-112.213c4.48-4.907 7.040-11.307 7.040-17.92v-721.067c0-14.293-11.733-26.027-26.24-26.027zM796.16-198.096c-14.507 0-26.453 11.733-26.453 26.453v710.613l-77.227 83.413-75.52-83.2v-710.827c0-14.507-11.733-26.453-26.453-26.453-14.507 0-26.453 11.733-26.453 26.453v721.067c0 6.613 2.347 12.8 6.827 17.707l101.76 112.213c4.907 5.547 12.587 8.32 19.627 8.747 7.253 0 14.293-2.987 19.413-8.533l103.893-112.213c4.48-4.907 7.040-11.307 7.040-17.92v-721.067c0-14.72-11.733-26.453-26.453-26.453zM1162.667-198.096c-14.507 0-26.453 11.733-26.453 26.453v710.613l-77.44 83.413-75.733-83.413v-710.827c0-14.507-11.733-26.453-26.453-26.453s-26.453 11.733-26.453 26.453v721.067c0 6.613 2.347 12.8 6.827 17.707l101.76 112.213c4.907 5.547 10.027 8.32 19.627 8.747 7.253 0 14.293-2.987 19.413-8.533l103.893-112.213c4.48-4.907 7.040-11.307 7.040-17.92v-721.067c0.427-14.507-11.307-26.24-26.027-26.24zM1289.813-208.122h-1214.293c-14.507 0-26.453 11.733-26.453 26.453 0 14.507 11.733 26.453 26.453 26.453h1214.293c14.507 0 26.453-11.733 26.453-26.453s-11.947-26.453-26.453-26.453z" horiz-adv-x="1365" />
<glyph unicode="&#xe61d;" d="M1316.48-199.589h-1268.267c-15.147 0-27.52 12.373-27.52 27.52s12.373 27.52 27.52 27.52h1268.267c15.147 0 27.52-12.373 27.52-27.52s-12.373-27.52-27.52-27.52zM43.52-194.896c-15.147 0-27.52 12.373-27.52 27.52v780.16c0 48.213 36.907 87.467 82.56 87.467h73.387c45.44 0 82.56-39.253 82.56-87.467v-753.707c0-15.147-12.373-27.52-27.52-27.52s-27.52 12.373-27.52 27.52v753.707c0 17.92-12.373 32.427-27.52 32.427h-73.387c-15.147 0-27.52-14.507-27.52-32.427v-779.947c0-15.36-12.373-27.733-27.52-27.733zM1317.547-168.656c-15.147 0-27.52 12.373-27.52 27.52v753.92c0 17.92-12.373 32.427-27.52 32.427h-73.387c-15.147 0-27.52-14.507-27.52-32.427v-753.707c0-15.147-12.373-27.52-27.52-27.52s-27.52 12.373-27.52 27.52v753.707c0 48.213 36.907 87.467 82.56 87.467h73.387c45.44 0 82.56-39.253 82.56-87.467v-753.707c0-15.36-12.373-27.733-27.52-27.733zM1124.907 340.571h-884.267c-15.147 0-27.52 12.373-27.52 27.52s12.373 27.52 27.52 27.52h884.48c15.147 0 27.52-12.373 27.52-27.52-0.213-15.147-12.373-27.52-27.733-27.52zM1133.013 160.944h-890.24c-15.147 0-27.52 12.373-27.52 27.52s12.373 27.52 27.52 27.52h890.24c15.147 0 27.52-12.373 27.52-27.52s-12.373-27.52-27.52-27.52zM1129.6-15.056h-893.653c-15.147 0-27.52 12.373-27.52 27.52s12.373 27.52 27.52 27.52h893.653c15.147 0 27.52-12.373 27.52-27.52s-12.373-27.52-27.52-27.52zM483.413 175.878c-15.147 0-27.52 12.373-27.52 27.52v153.387c0 15.147 12.373 27.52 27.52 27.52s27.52-12.373 27.52-27.52v-153.387c0-15.147-12.373-27.52-27.52-27.52zM727.467 3.718c-15.147 0-27.52 12.373-27.52 27.52v145.92c0 15.147 12.373 27.52 27.52 27.52s27.52-12.373 27.52-27.52v-145.92c0-15.36-12.373-27.52-27.52-27.52zM424.96-194.896c-15.147 0-27.52 12.373-27.52 27.52v176c0 15.147 12.373 27.52 27.52 27.52s27.52-12.373 27.52-27.52v-176c0-15.147-12.373-27.52-27.52-27.52zM926.72 160.944c-15.147 0-27.52 12.373-27.52 27.52v172.16c0 15.147 12.373 27.52 27.52 27.52s27.52-12.373 27.52-27.52v-172.16c0-15.147-12.16-27.52-27.52-27.52zM1133.013 520.411h-890.24c-15.147 0-27.52 12.373-27.52 27.52s12.373 27.52 27.52 27.52h890.24c15.147 0 27.52-12.373 27.52-27.52 0-15.36-12.373-27.52-27.52-27.52zM727.467 362.971c-15.147 0-27.52 12.373-27.52 27.52v146.133c0 15.147 12.373 27.52 27.52 27.52s27.52-12.373 27.52-27.52v-146.133c0-15.147-12.373-27.52-27.52-27.52zM926.72-191.056c-15.147 0-27.52 12.373-27.52 27.52v164.693c0 15.147 12.373 27.52 27.52 27.52s27.52-12.373 27.52-27.52v-164.693c0-15.147-12.16-27.52-27.52-27.52z" horiz-adv-x="1365" />
<glyph unicode="&#xe61e;" d="M972.373 510.171h-587.52c-11.733 0-21.12 9.387-21.12 21.12s9.6 21.12 21.12 21.12h587.52c11.733 0 21.12-9.387 21.12-21.12 0-11.52-9.387-21.12-21.12-21.12zM735.36 779.398v-162.347c0-11.733-9.6-21.12-21.12-21.12h-63.573c-11.733 0-21.12 9.387-21.12 21.12v162.347c-90.88-34.987-184.32-129.707-186.667-244.48-0.213-5.76 2.133-11.093 5.973-15.147 4.053-4.053 9.387-6.4 15.147-6.4h429.013c5.76 0 11.093 2.347 15.147 6.4s6.187 9.6 5.973 15.147c-2.133 114.773-87.893 209.493-178.773 244.48zM482.56 123.611l52.907-98.773 141.227 84.693 123.52-74.24 86.4 91.733c0 0 213.547-65.28 250.667-146.56s44.16-155.52 28.16-162.56c-15.787-6.827-974.293 0-974.293 0s7.040 199.467 81.067 229.547c74.24 30.293 210.347 76.16 210.347 76.16zM888.32 509.744c-5.333 19.84-15.787 36.693-33.493 45.44l-13.013-25.813c-10.667 2.347-23.253 4.693-34.56 5.547-21.76 1.493-218.667-6.613-288-9.6l-13.013 25.813c-16.853-8.533-26.88-23.893-32.427-41.387h414.507zM1143.467 22.918c-30.933 46.507-111.147 77.227-203.947 112.64-15.787 5.973-31.787 12.16-47.573 18.56-14.293 24.96-36.48 36.48-60.16 47.787l-26.24 13.013v61.227c18.987 15.787 59.733 57.387 64.427 125.227 7.040 6.613 13.867 18.133 18.56 37.547 2.56 10.453 3.84 21.547 4.267 32.853h-424.533c0-12.587 1.28-24.747 3.627-34.773 4.267-18.347 10.88-29.227 17.707-35.627 4.48-67.413 43.52-108.8 61.867-124.8v-61.867l-25.173-13.227c-22.4-10.453-40.533-19.2-53.12-46.933-17.28-6.827-34.56-13.44-51.627-20.053-92.373-35.2-172.16-65.493-202.667-111.36-45.227-67.84-48.427-198.827-48.64-204.373 0-5.76 2.133-11.093 5.973-15.147 4.053-4.053 9.387-6.4 15.147-6.4h974.080c11.52 0 20.907 9.173 21.12 20.693 0.213 5.333 2.347 136.747-43.093 205.013zM799.36 144.518c3.413 3.413 5.12 7.893 5.76 12.587h0.427v10.24l8.107-3.84c23.467-11.093 35.84-17.493 43.307-31.787l-44.16-80.213-82.133 55.040c27.307 9.173 54.187 23.467 68.693 37.973zM544.213 162.864l7.040 3.413v-9.173h0.427c0.427-4.693 2.347-9.173 5.76-12.587 15.36-15.36 43.947-29.44 71.893-38.4l-84.907-59.093-33.493 88.96c6.187 14.080 13.227 17.493 33.28 26.88zM781.653-160.549h-568.107c2.773 38.187 11.733 117.12 40.32 160 23.040 34.773 104.107 65.493 182.4 95.147 13.013 4.907 26.24 10.027 39.253 15.147l39.040-103.467c2.347-6.187 7.253-10.88 13.653-12.8 2.133-0.64 4.053-0.853 6.187-0.853 4.267 0 8.533 1.28 12.16 3.84l133.547 93.227 128.427-86.4c3.627-2.347 7.68-3.627 11.733-3.627 1.707 0 3.413 0.213 4.907 0.64 5.76 1.493 10.667 5.12 13.653 10.453l53.547 97.707c10.667-4.053 21.333-8.32 31.787-12.373 78.933-30.293 160.427-61.44 183.893-96.64 28.587-42.88 34.773-122.453 35.84-160h-362.24zM906.027 525.744h-42.453c0 125.44-83.84 227.627-186.667 227.627s-186.667-102.187-186.667-227.627h-42.24c0 148.907 102.827 270.080 229.12 270.080s228.907-121.173 228.907-270.080z" horiz-adv-x="1365" />
<glyph unicode="&#xe61f;" d="M391.467-179.749c-7.040 0-14.080 1.707-20.267 5.12-13.653 7.467-22.4 21.76-22.4 37.547v859.307c0 15.573 8.533 30.080 22.4 37.547 13.653 7.467 30.507 6.827 43.52-1.707l660.48-429.653c12.16-7.893 19.413-21.333 19.413-35.84s-7.253-27.947-19.413-35.84l-660.48-429.44c-7.040-4.693-15.147-7.040-23.253-7.040zM434.133 643.504v-701.867l539.52 350.933-539.52 350.933z" horiz-adv-x="1365" />
<glyph unicode="&#xe620;" d="M661.333 536.624v0c-38.187 0-69.12 30.933-69.12 69.12s30.933 69.12 69.12 69.12v0c38.187 0 69.12-30.933 69.12-69.12s-30.933-69.12-69.12-69.12zM661.333 225.584v0c-38.187 0-69.12 30.933-69.12 69.12s30.933 69.12 69.12 69.12v0c38.187 0 69.12-30.933 69.12-69.12s-30.933-69.12-69.12-69.12zM661.333-85.669v0c-38.187 0-69.12 30.933-69.12 69.12s30.933 69.12 69.12 69.12v0c38.187 0 69.12-30.933 69.12-69.12s-30.933-69.12-69.12-69.12z" horiz-adv-x="1365" />
<glyph unicode="&#xe621;" d="M922.88 770.438h-454.827c-32.427 0-58.88-27.52-58.88-61.44v-895.36c0-11.307 8.747-20.48 19.627-20.48h114.987v214.613c0 11.307 8.747 20.48 19.627 20.48h261.333c10.88 0 19.627-9.173 19.627-20.48v-214.4h117.76c10.88 0 19.627 9.173 19.627 20.48v895.147c0 33.92-26.453 61.44-58.88 61.44zM645.547 188.038h-85.973c-11.307 0-20.48 9.173-20.48 20.48s9.173 20.48 20.48 20.48h85.973c11.307 0 20.48-9.173 20.48-20.48-0.213-11.307-9.387-20.48-20.48-20.48zM645.547 362.331h-85.973c-11.307 0-20.48 9.173-20.48 20.48s9.173 20.48 20.48 20.48h85.973c11.307 0 20.48-9.173 20.48-20.48-0.213-11.52-9.387-20.48-20.48-20.48zM645.547 531.718h-85.973c-11.307 0-20.48 9.173-20.48 20.48s9.173 20.48 20.48 20.48h85.973c11.307 0 20.48-9.173 20.48-20.48-0.213-11.307-9.387-20.48-20.48-20.48zM824.107 188.038h-85.973c-11.307 0-20.48 9.173-20.48 20.48s9.173 20.48 20.48 20.48h85.973c11.307 0 20.48-9.173 20.48-20.48s-9.173-20.48-20.48-20.48zM824.107 362.331h-85.973c-11.307 0-20.48 9.173-20.48 20.48s9.173 20.48 20.48 20.48h85.973c11.307 0 20.48-9.173 20.48-20.48 0-11.52-9.173-20.48-20.48-20.48zM824.107 531.718h-85.973c-11.307 0-20.48 9.173-20.48 20.48s9.173 20.48 20.48 20.48h85.973c11.307 0 20.48-9.173 20.48-20.48s-9.173-20.48-20.48-20.48z" horiz-adv-x="1365" />
<glyph unicode="&#xe622;" d="M998.4-176.762h-98.133v759.467h98.133c12.8 0 21.333 8.533 21.333 21.333s-8.533 21.333-21.333 21.333h-972.8c-12.8 0-21.333-8.533-21.333-21.333s8.533-21.333 21.333-21.333h102.4v-759.467h-102.4c-12.8 0-21.333-8.533-21.333-21.333s8.533-21.333 21.333-21.333h972.8c12.8 0 21.333 8.533 21.333 21.333s-8.533 21.333-21.333 21.333zM238.933 463.238h213.333c8.533 0 17.067-8.533 17.067-21.333 0-8.533-8.533-21.333-21.333-21.333h-213.333c-8.533 0-17.067 12.8-17.067 21.333 0 12.8 8.533 21.333 21.333 21.333zM238.933 326.704h213.333c12.8 0 21.333-8.533 21.333-21.333s-8.533-21.333-21.333-21.333h-213.333c-12.8 0-21.333 8.533-21.333 21.333 0 8.533 8.533 21.333 21.333 21.333zM217.6 156.038c0 12.8 8.533 21.333 21.333 21.333h213.333c12.8 0 21.333-8.533 21.333-21.333s-8.533-21.333-21.333-21.333h-213.333c-12.8 0-21.333 8.533-21.333 21.333zM695.467-176.762h-345.6v149.333h345.6v-149.333zM785.067 134.704h-213.333c-12.8 0-21.333 8.533-21.333 21.333s8.533 21.333 21.333 21.333h213.333c12.8 0 21.333-8.533 21.333-21.333s-8.533-21.333-21.333-21.333zM785.067 284.038h-213.333c-12.8 0-21.333 8.533-21.333 21.333s8.533 21.333 21.333 21.333h213.333c12.8 0 21.333-8.533 21.333-21.333s-8.533-21.333-21.333-21.333zM785.067 420.571h-213.333c-8.533 0-17.067 12.8-17.067 21.333 0 12.8 8.533 21.333 21.333 21.333h213.333c12.8 0 21.333-8.533 21.333-21.333-4.267-8.533-12.8-21.333-25.6-21.333zM832 732.038h-204.8v25.6c0 25.6-17.067 46.933-42.667 46.933h-149.333c-21.333 0-42.667-21.333-42.667-46.933v-25.6h-196.267c-21.333 0-42.667-17.067-42.667-42.667v-12.8h716.8v12.8c4.267 25.6-17.067 42.667-38.4 42.667z" />
<glyph unicode="&#xe623;" d="M921.6-27.429h-844.8c-46.933 0-81.067 38.4-81.067 81.067v520.533c0 46.933 38.4 81.067 81.067 81.067h844.8c46.933 0 81.067-38.4 81.067-81.067v-520.533c0-42.667-38.4-81.067-81.067-81.067zM917.333 574.171l-840.533-4.267 4.267-516.267 836.267 4.267v516.267zM503.467 207.238c-8.533 0-17.067 4.267-25.6 8.533l-448 349.867c-17.067 12.8-21.333 42.667-8.533 59.733s42.667 21.333 59.733 8.533l418.133-332.8 413.867 332.8c17.067 12.8 46.933 12.8 59.733-8.533 12.8-17.067 12.8-46.933-8.533-59.733l-439.467-349.867c-4.267-4.267-12.8-8.533-21.333-8.533z" />
<glyph unicode="&#xe624;" d="M1093.76 723.504c10.88 0 19.84-8.96 19.84-19.84v-826.667c0-10.88-8.96-19.84-19.84-19.84h-826.453c-10.88 0-19.84 8.96-19.84 19.84v826.667c0 10.88 8.96 19.84 19.84 19.84h826.453zM1118.293 790.704h-875.52c-34.56 0-62.507-27.947-62.507-62.507v-875.52c0-34.56 27.947-62.507 62.507-62.507h875.52c34.56 0 62.507 27.947 62.507 62.507v875.52c0 34.56-27.947 62.507-62.507 62.507v0z" horiz-adv-x="1365" />
<glyph unicode="&#xe625;" d="M711.356 240.646l595.345 485.222c-12.681 7.855-27.411 12.57-43.392 12.57h-1165.553c-3.682 0-7.204-0.593-10.782-1.082l624.382-496.71zM729.067 183.556c-5.092-4.171-11.266-6.229-17.495-6.229-6.123 0-12.192 2.003-17.282 6.012l-659.966 524.932c-11.915-14.355-19.39-32.61-19.39-52.762v-721.611c0-45.826 37.101-82.927 82.822-82.927h1165.555c45.719 0 82.822 37.101 82.822 82.929v721.609c0 9.534-1.954 18.47-4.877 27.029l-612.19-498.982z" horiz-adv-x="1365" />
<glyph unicode="&#xe626;" d="M1093.76 723.504c10.88 0 19.84-8.96 19.84-19.84v-826.667c0-10.88-8.96-19.84-19.84-19.84h-826.453c-10.88 0-19.84 8.96-19.84 19.84v826.667c0 10.88 8.96 19.84 19.84 19.84h826.453zM1118.293 790.704h-875.52c-34.56 0-62.507-27.947-62.507-62.507v-875.52c0-34.56 27.947-62.507 62.507-62.507h875.52c34.56 0 62.507 27.947 62.507 62.507v875.52c0 34.56-27.947 62.507-62.507 62.507v0zM944.853 466.224c-23.040 24.96-65.493 26.667-90.453 3.627l-277.76-257.067-64 63.36c-24.107 24.107-66.56 23.893-90.667-0.213-12.16-12.16-18.773-28.16-18.56-45.44 0-17.067 6.827-33.067 18.987-45.227l107.52-106.453c12.16-12.16 28.16-18.773 45.227-18.773 16 0 31.36 5.973 43.52 17.067l322.773 298.667c25.813 24.107 27.307 64.64 3.413 90.453z" horiz-adv-x="1365" />
<glyph unicode="&#xe627;" d="M1002.667-74.362c-12.8 0-21.333 8.533-21.333 21.333v814.933h-772.267c-12.8 0-21.333 8.533-21.333 21.333s8.533 21.333 21.333 21.333h793.6c12.8 0 21.333-8.533 21.333-21.333v-836.267c0-12.8-8.533-21.333-21.333-21.333zM72.533-219.429c-4.267 0-8.533 0-12.8 4.267-8.533 8.533-8.533 21.333 0 29.867l904.533 960c8.533 8.533 21.333 8.533 29.867 0s8.533-21.333 0-29.867l-908.8-955.733c-4.267-4.267-8.533-8.533-12.8-8.533z" />
<glyph unicode="&#xe628;" d="M981.333 804.571h-861.867c-25.6 0-42.667-17.067-42.667-42.667s17.067-42.667 42.667-42.667h755.2l-861.867-866.133c-17.067-17.067-17.067-42.667 0-59.733 8.533-8.533 17.067-12.8 29.867-12.8s21.333 4.267 29.867 12.8l866.133 870.4v-763.733c0-25.6 17.067-42.667 42.667-42.667s42.667 17.067 42.667 42.667v861.867c0 25.6-17.067 42.667-42.667 42.667z" />
<glyph unicode="&#xe629;" d="M128 512h-42.667l2.133 42.667c0 32 29.867 64 61.867 64h40.533c34.133 0 66.133-29.867 66.133-64v-42.667h-42.667v42.667c0 8.533-10.667 21.333-23.467 21.333h-40.533c-8.533 0-19.2-10.667-19.2-21.333l-2.133-42.667zM915.2-106.667h-806.4c-68.267 0-108.8 36.267-108.8 102.4v443.733c0 34.133 12.8 93.867 106.667 93.867h266.667l57.6 76.8c21.333 32 49.067 51.2 81.067 51.2h213.333c32 0 59.733-19.2 81.067-53.333l2.133-2.133 36.267-72.533h70.4c72.533 0 108.8-32 108.8-93.867v-443.733c0-66.133-40.533-102.4-108.8-102.4zM106.667 490.666c-55.467 0-64-25.6-64-51.2v-443.733c0-40.533 21.333-59.733 66.133-59.733h806.4c44.8 0 66.133 19.2 66.133 59.733v443.733c0 27.733-4.267 51.2-66.133 51.2h-96l-49.067 96c-8.533 14.933-23.467 32-44.8 32h-213.333c-21.333 0-36.267-17.067-46.933-32l-70.4-96h-288zM618.667-21.334c-140.8 0-256 115.2-256 256s115.2 256 256 256c140.8 0 256-115.2 256-256s-115.2-256-256-256zM618.667 448c-117.333 0-213.333-96-213.333-213.333s96-213.333 213.333-213.333c117.333 0 213.333 96 213.333 213.333s-96 213.333-213.333 213.333zM618.667 85.333c-83.2 0-149.333 66.133-149.333 149.333s66.133 149.333 149.333 149.333 149.333-66.133 149.333-149.333c0-83.2-66.133-149.333-149.333-149.333zM618.667 341.333c-59.733 0-106.667-46.933-106.667-106.667s46.933-106.667 106.667-106.667 106.667 46.933 106.667 106.667-46.933 106.667-106.667 106.667zM170.667 277.333c-46.933 0-85.333 38.4-85.333 85.333s38.4 85.333 85.333 85.333 85.333-38.4 85.333-85.333-38.4-85.333-85.333-85.333zM170.667 405.333c-23.467 0-42.667-19.2-42.667-42.667s19.2-42.667 42.667-42.667 42.667 19.2 42.667 42.667-19.2 42.667-42.667 42.667z" />
<glyph unicode="&#xe62a;" d="M704 512c-125.867 0-168.533 34.133-192 68.267-23.467-34.133-66.133-68.267-192-68.267-12.8 0-21.333 8.533-21.333 21.333s8.533 21.333 21.333 21.333c128 0 149.333 36.267 162.133 59.733 4.267 6.4 8.533 12.8 14.933 19.2 8.533 8.533 21.333 8.533 29.867 0 6.4-6.4 10.667-12.8 14.933-19.2 12.8-23.467 34.133-59.733 162.133-59.733 12.8 0 21.333-8.533 21.333-21.333s-8.533-21.333-21.333-21.333zM512 64c-66.133 0-219.733 83.2-234.667 215.467-29.867 8.533-53.333 36.267-61.867 72.533-8.533 34.133-2.133 64 17.067 83.2l-19.2 115.2c0 4.267-8.533 85.333 53.333 153.6 51.2 57.6 134.4 85.333 245.333 85.333s194.133-27.733 245.333-85.333c59.733-66.133 53.333-147.2 53.333-151.467v-2.133l-21.333-85.333c-2.133-10.667-14.933-19.2-25.6-14.933-10.667 2.133-19.2 14.933-14.933 25.6l21.333 83.2c0 8.533 2.133 68.267-42.667 117.333-44.8 46.933-117.333 70.4-215.467 70.4s-170.667-23.467-213.333-70.4c-49.067-53.333-42.667-117.333-42.667-119.467l23.467-142.933-14.933-6.4c-8.533-4.267-12.8-23.467-6.4-44.8 4.267-19.2 19.2-42.667 40.533-42.667h21.333v-21.333c0-110.933 134.4-192 192-192 21.333 0 64 14.933 100.267 40.533 8.533 6.4 23.467 4.267 29.867-4.267s4.267-23.467-4.267-29.867c-44.8-34.133-98.133-49.067-125.867-49.067zM1024-234.667h-1024v128c0 78.933 49.067 151.467 123.733 179.2l270.933 76.8c10.667 2.133 23.467-4.267 25.6-14.933 4.267-10.667-4.267-23.467-14.933-25.6l-266.667-76.8c-57.6-21.333-96-76.8-96-138.667v-85.333h938.667v85.333c0 61.867-38.4 117.333-98.133 140.8l-264.533 74.667c-10.667 4.267-17.067 14.933-14.933 25.6s14.933 17.067 25.6 14.933l266.667-76.8c76.8-29.867 125.867-102.4 125.867-181.333v-125.867zM746.667 213.333h-170.667c-12.8 0-21.333 8.533-21.333 21.333s8.533 21.333 21.333 21.333h170.667c32 0 57.6 17.067 64 44.8v44.8c0 12.8 8.533 21.333 21.333 21.333s21.333-8.533 21.333-21.333v-51.2c-10.667-49.067-53.333-81.067-106.667-81.067zM810.667 320h-42.667c-12.8 0-21.333 8.533-21.333 21.333v128c0 12.8 8.533 21.333 21.333 21.333h42.667c46.933 0 85.333-38.4 85.333-85.333s-38.4-85.333-85.333-85.333zM789.333 362.666h21.333c23.467 0 42.667 19.2 42.667 42.667s-19.2 42.667-42.667 42.667h-21.333v-85.333zM576 192h-85.333c-23.467 0-42.667 19.2-42.667 42.667s19.2 42.667 42.667 42.667h85.333c23.467 0 42.667-19.2 42.667-42.667s-19.2-42.667-42.667-42.667zM469.333 384c-10.667 0-21.333 8.533-21.333 21.333-4.267 0-10.667 0-14.933 0h-12.8c-4.267 0-10.667 0-14.933 0 0-10.667-10.667-21.333-21.333-21.333-12.8 0-21.333 8.533-21.333 21.333s4.267 23.467 10.667 29.867c12.8 12.8 32 12.8 49.067 12.8h8.533c17.067 0 34.133 0 46.933-12.8 8.533-6.4 10.667-17.067 10.667-29.867 2.133-12.8-6.4-21.333-19.2-21.333zM640 384c-10.667 0-21.333 8.533-21.333 21.333-4.267 0-10.667 0-14.933 0h-12.8c-4.267 0-10.667 0-14.933 0 0-10.667-10.667-21.333-21.333-21.333-12.8 0-21.333 8.533-21.333 21.333s4.267 23.467 10.667 29.867c12.8 12.8 32 12.8 49.067 12.8h8.533c17.067 0 34.133 0 46.933-12.8 8.533-6.4 10.667-17.067 10.667-29.867 2.133-12.8-6.4-21.333-19.2-21.333z" />
<glyph unicode="&#xe62b;" d="M653.739-214.138c-11.776 0-21.333 9.557-21.333 21.333v180.565h-241.28v-180.565c0-11.776-9.557-21.333-21.333-21.333s-21.333 9.557-21.333 21.333v201.899c0 11.776 9.557 21.333 21.333 21.333h283.947c11.776 0 21.333-9.557 21.333-21.333v-201.899c0-11.776-9.515-21.333-21.333-21.333zM932.437-219.429h-910.848c-11.776 0-21.333 9.557-21.333 21.333l-0.256 597.461c0 35.413 28.715 64.128 64 64.128l151.979-0.171c11.776 0 21.333-9.557 21.333-21.333s-9.557-21.333-21.333-21.333l-152.064 0.171c-11.691 0-21.248-9.557-21.248-21.333l0.256-55.296v-520.96h889.557c11.776 0 27.093-9.557 27.093-21.333s-15.317-21.333-27.136-21.333zM1002.667-219.429h-194.432c-11.776 0-21.333 9.557-21.333 21.333s9.557 21.333 21.333 21.333h173.099l-1.109 575.445c0 12.544-9.6 22.144-21.333 22.144l-150.613-0.171c-11.776 0-21.333 9.557-21.333 21.333s9.557 21.333 21.333 21.333l150.528 0.171c35.413 0 64.085-28.715 64.085-64l1.109-29.483v-568.107c0-11.776-9.557-21.333-21.333-21.333zM219.563-1.616h-78.933c-11.776 0-21.333 9.557-21.333 21.333s9.557 21.333 21.333 21.333h78.976c11.776 0 21.333-9.557 21.333-21.333-0.043-11.776-9.557-21.333-21.376-21.333zM891.563-1.616h-78.933c-11.776 0-21.333 9.557-21.333 21.333s9.557 21.333 21.333 21.333h78.933c11.776 0 21.333-9.557 21.333-21.333s-9.515-21.333-21.333-21.333zM803.157-214.522c-11.776 0-21.333 9.557-21.333 21.333v933.76c0 11.776-9.557 21.333-21.333 21.333h-483.627c-11.776 0-21.333-9.557-21.333-21.333v-933.76c0-11.776-9.557-21.333-21.333-21.333s-21.333 9.557-21.333 21.333v933.76c0 35.285 28.715 64 64 64h483.627c35.285 0 64-28.715 64-64v-933.76c0-11.776-9.515-21.333-21.333-21.333zM461.227 125.787h-89.685c-11.776 0-21.333 9.557-21.333 21.333s9.557 21.333 21.333 21.333h89.685c11.776 0 21.333-9.557 21.333-21.333 0-11.819-9.557-21.333-21.333-21.333zM461.227 249.222h-89.685c-11.776 0-21.333 9.557-21.333 21.333s9.557 21.333 21.333 21.333h89.685c11.776 0 21.333-9.557 21.333-21.333s-9.557-21.333-21.333-21.333zM461.227 379.824h-89.685c-11.776 0-21.333 9.557-21.333 21.333s9.557 21.333 21.333 21.333h89.685c11.776 0 21.333-9.557 21.333-21.333s-9.557-21.333-21.333-21.333zM461.227 503.259h-89.685c-11.776 0-21.333 9.557-21.333 21.333s9.557 21.333 21.333 21.333h89.685c11.776 0 21.333-9.557 21.333-21.333s-9.557-21.333-21.333-21.333zM461.227 626.779h-89.685c-11.776 0-21.333 9.557-21.333 21.333s9.557 21.333 21.333 21.333h89.685c11.776 0 21.333-9.557 21.333-21.333s-9.557-21.333-21.333-21.333zM647.595 125.787h-89.685c-11.776 0-21.333 9.557-21.333 21.333s9.557 21.333 21.333 21.333h89.685c11.776 0 21.333-9.557 21.333-21.333 0-11.819-9.557-21.333-21.333-21.333zM647.595 249.222h-89.685c-11.776 0-21.333 9.557-21.333 21.333s9.557 21.333 21.333 21.333h89.685c11.776 0 21.333-9.557 21.333-21.333s-9.557-21.333-21.333-21.333zM647.595 379.824h-89.685c-11.776 0-21.333 9.557-21.333 21.333s9.557 21.333 21.333 21.333h89.685c11.776 0 21.333-9.557 21.333-21.333s-9.557-21.333-21.333-21.333zM647.595 503.259h-89.685c-11.776 0-21.333 9.557-21.333 21.333s9.557 21.333 21.333 21.333h89.685c11.776 0 21.333-9.557 21.333-21.333s-9.557-21.333-21.333-21.333zM647.595 626.779h-89.685c-11.776 0-21.333 9.557-21.333 21.333s9.557 21.333 21.333 21.333h89.685c11.776 0 21.333-9.557 21.333-21.333s-9.557-21.333-21.333-21.333z" />
<glyph unicode="&#xe62c;" d="M27.52 174.171c-11.776 0-21.333 9.557-21.333 21.333l-0.256 544.939c0 35.584 28.715 64.299 64 64.299l30.208-0.341h521.173c11.776 0 21.333-9.557 21.333-21.333v-208.896c0-11.776-9.557-21.333-21.333-21.333s-21.333 9.557-21.333 21.333v187.563l-530.261 0.341c-11.563 0-21.12-9.557-21.12-21.333l0.256-18.048v-527.232c0-11.776-9.557-21.291-21.333-21.291zM367.957-219.6c-11.776 0-21.333 9.557-21.333 21.333v199.083h-320.853c-11.776 0-21.333 9.557-21.333 21.333v204.501c0 11.776 9.557 21.333 21.333 21.333s21.333-9.557 21.333-21.333v-183.168h320.853c11.776 0 21.333-9.557 21.333-21.333v-199.083l565.931 0.299c11.904 0 21.461 9.557 21.461 21.333l0.213 348.032c0 11.776 9.557 21.333 21.333 21.333s21.333-9.557 21.333-21.333l-0.213-348.16c0-35.2-28.715-63.915-64-63.915l-46.421-0.299h-540.971zM628.437 167.984h-263.125c-11.776 0-21.333 9.557-21.333 21.333v127.915c0 11.776 9.557 21.333 21.333 21.333s21.333-9.557 21.333-21.333v-106.581h220.459v241.749c0 11.776 9.557 21.333 21.333 21.333h241.749c11.776 0 21.333-9.557 21.333-21.333v-253.525c0-11.776-9.557-21.333-21.333-21.333s-21.333 9.557-21.333 21.333v232.192h-199.083v-241.707c0-11.819-9.557-21.376-21.333-21.376zM363.947 427.526h-333.312c-11.776 0-21.333 9.557-21.333 21.333s9.557 21.333 21.333 21.333h333.312c11.776 0 21.333-9.557 21.333-21.333 0-11.819-9.515-21.333-21.333-21.333zM618.667-216.528c-11.776 0-21.333 9.557-21.333 21.333v178.688c0 11.776 9.557 21.333 21.333 21.333s21.333-9.557 21.333-21.333v-178.688c0-11.776-9.557-21.333-21.333-21.333zM989.312 174.171h-117.333c-11.776 0-21.333 9.557-21.333 21.333s9.557 21.333 21.333 21.333h117.333c11.776 0 21.333-9.557 21.333-21.333 0-11.819-9.557-21.333-21.333-21.333zM364.843 551.984c-11.776 0-21.333 9.557-21.333 21.333v206.208c0 11.776 9.557 21.333 21.333 21.333s21.333-9.557 21.333-21.333v-206.208c0-11.819-9.515-21.333-21.333-21.333z" />
<glyph unicode="&#xe62d;" d="M456.041-210.631h-84.017c-11.639 0-21.056 9.417-21.056 21.056v42.112c0 11.639 9.417 21.056 21.056 21.056h84.017c11.639 0 21.056-9.417 21.056-21.056v-42.112c0-11.639-9.417-21.056-21.056-21.056zM1002.665-210.631h-84.1c-11.635 0-21.056 9.417-21.056 21.056v42.112c0 11.639 9.421 21.056 21.056 21.056h84.1c11.639 0 21.056-9.417 21.056-21.056v-42.112c0-11.639-9.417-21.056-21.056-21.056zM222.208 576.445c-3.415 0-6.869 0.826-10.078 2.594-10.199 5.508-13.982 18.34-8.431 28.54 41.412 75.955 121.033 87.511 124.401 88.004l689.534 0.164c32.57 1.73 105.152-14.639 135.75-89.894 4.401-10.775-0.783-23.072-11.556-27.473-10.818-4.358-23.031 0.826-27.43 11.597-26.812 65.963-93.146 63.987-95.735 63.659h-687.723c0.371-0.164-59.3-9.374-90.227-66.208-3.823-6.991-11.059-10.982-18.505-10.982zM254.656 363.257h-18.381c-34.75 0-63.044 28.38-63.044 63.166v128.966c0 34.793 28.294 63.166 63.044 63.166h18.381c34.831 0 63.166-28.375 63.166-63.166v-128.966c0-34.786-28.337-63.166-63.166-63.166zM236.273 576.445c-11.556 0-20.934-9.459-20.934-21.056v-128.966c0-11.597 9.378-21.056 20.934-21.056h18.381c11.597 0 21.056 9.459 21.056 21.056v128.966c0 11.597-9.459 21.056-21.056 21.056h-18.381zM1120.527 352.729h-18.381c-34.831 0-63.166 28.337-63.166 63.166v128.966c0 34.793 28.337 63.166 63.166 63.166h18.381c34.75 0 63.044-28.375 63.044-63.166v-128.966c0-34.829-28.294-63.166-63.044-63.166zM1102.144 565.917c-11.597 0-21.056-9.459-21.056-21.056v-128.966c0-11.597 9.459-21.056 21.056-21.056h18.381c11.556 0 20.934 9.459 20.934 21.056v128.966c0 11.597-9.378 21.056-20.934 21.056h-18.381zM918.564 800.040h-462.524c-81.135 0-147.183-66.127-147.183-147.39v-800.113c0-11.639 9.417-21.056 21.056-21.056h714.741c11.635 0 21.056 9.417 21.056 21.056v800.113c-0.002 81.263-66.005 147.39-147.147 147.39zM353.807 670.169c0 23.275 43.388 15.834 66.662 15.834l531.654-7.034c23.275 0 70.199 14.475 70.199-8.802v-563.238h-668.516v563.241zM477.097-42.185h-126.127v84.222h126.127v-84.222zM814.355-41.2h-246.991c-11.639 0-21.056 9.421-21.056 21.056 0 11.639 9.417 21.056 21.056 21.056h246.991c11.639 0 21.056-9.417 21.056-21.056 0-11.637-9.417-21.056-21.056-21.056zM1023.599-42.185h-126.089v84.222h126.089v-84.222z" horiz-adv-x="1365" />
<glyph unicode="&#xe62e;" d="M883.072-176.762h-724.139c-11.776 0-21.333 9.557-21.333 21.333v810.667c0 82.347 66.901 149.333 149.12 149.333h468.608c82.219 0 149.077-66.987 149.077-149.333v-810.667c0-11.776-9.515-21.333-21.333-21.333zM180.267-134.096h681.515v789.333c0 58.795-47.744 106.667-106.411 106.667h-468.651c-58.709 0-106.453-47.829-106.453-106.667v-789.333zM286.72-219.429h-85.12c-11.776 0-21.333 9.557-21.333 21.333v42.667c0 11.776 9.557 21.333 21.333 21.333h85.12c11.776 0 21.333-9.557 21.333-21.333v-42.667c0-11.776-9.557-21.333-21.333-21.333zM840.533-219.429h-85.205c-11.776 0-21.333 9.557-21.333 21.333v42.667c0 11.776 9.557 21.333 21.333 21.333h85.205c11.776 0 21.333-9.557 21.333-21.333v-42.667c0-11.776-9.515-21.333-21.333-21.333zM286.72-91.429h-127.787c-11.776 0-21.333 9.557-21.333 21.333v85.333c0 11.776 9.557 21.333 21.333 21.333h127.787c11.776 0 21.333-9.557 21.333-21.333v-85.333c0-11.819-9.557-21.333-21.333-21.333zM180.267-48.762h85.12v42.667h-85.12v-42.667zM883.072-91.429h-127.744c-11.776 0-21.333 9.557-21.333 21.333v85.333c0 11.776 9.557 21.333 21.333 21.333h127.744c11.776 0 21.333-9.557 21.333-21.333v-85.333c0-11.819-9.515-21.333-21.333-21.333zM776.661-48.762h85.077v42.667h-85.077v-42.667zM49.792 578.011c-3.456 0-6.955 0.853-10.197 2.603-10.325 5.632-14.165 18.56-8.533 28.928 41.941 76.971 122.624 88.704 126.037 89.131l698.624 0.171c32.981 1.749 106.539-14.848 137.557-91.093 4.437-10.923-0.811-23.339-11.691-27.819-10.965-4.395-23.339 0.853-27.776 11.733-27.179 66.859-94.379 64.853-96.981 64.555h-696.789c0.299-0.128-60.16-9.515-91.52-67.072-3.84-7.083-11.179-11.136-18.731-11.136zM855.723 101.552h-695.765c-11.776 0-21.333 9.557-21.333 21.333s9.557 21.333 21.333 21.333h695.765c11.776 0 21.333-9.557 21.333-21.333s-9.557-21.333-21.333-21.333zM649.728-47.781h-250.24c-11.776 0-21.333 9.557-21.333 21.333s9.557 21.333 21.333 21.333h250.24c11.776 0 21.333-9.557 21.333-21.333s-9.515-21.333-21.333-21.333zM82.645 354.907h-18.603c-35.2 0-63.872 28.715-63.872 64v130.645c0 35.285 28.672 64 63.872 64h18.603c35.285 0 64-28.715 64-64v-130.645c0-35.285-28.672-64-64-64zM64.043 570.886c-11.691 0-21.205-9.557-21.205-21.333v-130.645c0-11.733 9.515-21.333 21.205-21.333h18.603c11.733 0 21.333 9.557 21.333 21.333v130.645c0 11.733-9.6 21.333-21.333 21.333h-18.603zM959.957 344.24h-18.645c-35.285 0-64 28.715-64 63.957v130.688c0 35.285 28.715 64 64 64h18.645c35.2 0 63.872-28.715 63.872-64v-130.688c0-35.243-28.672-63.957-63.872-63.957zM941.312 560.219c-11.733 0-21.333-9.557-21.333-21.333v-130.688c0-11.733 9.6-21.291 21.333-21.291h18.645c11.691 0 21.205 9.557 21.205 21.291v130.688c0 11.733-9.515 21.333-21.205 21.333h-18.645zM746.155 243.76c-11.776 0-21.333 9.557-21.333 21.333v270.251c0 11.776 9.557 21.333 21.333 21.333s21.333-9.557 21.333-21.333v-270.251c0-11.776-9.515-21.333-21.333-21.333z" />
<glyph unicode="&#xe62f;" d="M665.6-115.322h-468.693c-11.093 0-20.267 8.96-20.267 20.267v849.92c0 11.093 8.96 20.267 20.267 20.267h445.227c5.333 0 10.453-2.133 14.293-5.973l202.453-202.453c3.84-3.84 5.973-8.96 5.973-14.293v-161.92c0-11.093-8.96-20.267-20.267-20.267-11.093 0-20.267 8.96-20.267 20.267v153.387l-190.507 190.507h-416.64v-809.387h448.427c11.093 0 20.267-8.96 20.267-20.267s-8.96-20.053-20.267-20.053zM844.587 532.144h-202.453c-11.093 0-20.267 8.96-20.267 20.267v202.453c0 11.093 8.96 20.267 20.267 20.267 11.093 0 20.267-8.96 20.267-20.267v-182.187h182.187c11.093 0 20.267-8.96 20.267-20.267s-9.173-20.267-20.267-20.267zM439.467 263.984h-122.667c-11.733 0-21.333 9.6-21.333 21.333s9.6 21.333 21.333 21.333h122.667c11.733 0 21.333-9.6 21.333-21.333s-9.6-21.333-21.333-21.333zM520.533 139.398h-203.733c-11.733 0-21.333 9.6-21.333 21.333s9.6 21.333 21.333 21.333h203.733c11.733 0 21.333-9.6 21.333-21.333s-9.6-21.333-21.333-21.333zM590.293 15.024h-273.493c-11.733 0-21.333 9.6-21.333 21.333s9.6 21.333 21.333 21.333h273.493c11.733 0 21.333-9.6 21.333-21.333s-9.6-21.333-21.333-21.333zM922.027-185.722c-143.573 0-260.267 116.693-260.267 260.267s116.693 260.267 260.267 260.267 260.267-116.693 260.267-260.267-116.693-260.267-260.267-260.267zM922.027 294.704c-121.387 0-220.16-98.773-220.16-220.16s98.773-220.16 220.16-220.16 220.16 98.773 220.16 220.16-98.56 220.16-220.16 220.16zM813.867-53.669c-5.12 0-10.24 1.92-14.080 5.76-7.893 7.893-7.893 20.48 0 28.373l216.32 216.32c7.893 7.893 20.48 7.893 28.373 0s7.893-20.48 0-28.373l-216.32-216.32c-4.053-3.84-9.173-5.76-14.293-5.76zM1030.187-53.669c-5.12 0-10.24 1.92-14.080 5.76l-216.32 216.32c-7.893 7.893-7.893 20.48 0 28.373s20.48 7.893 28.373 0l216.32-216.32c7.893-7.893 7.893-20.48 0-28.373-4.053-3.84-9.173-5.76-14.293-5.76z" horiz-adv-x="1365" />
<glyph unicode="&#xe630;" d="M199.808-219.429c-60.971 0-110.592 49.621-110.592 110.592s49.621 110.592 110.592 110.592 110.549-49.621 110.549-110.592c-0.043-60.971-49.621-110.592-110.549-110.592zM199.808-40.869c-37.461 0-67.925-30.464-67.925-67.925 0-37.504 30.464-67.968 67.925-67.968 37.419 0 67.883 30.464 67.883 67.925-0.043 37.461-30.464 67.968-67.883 67.968zM1002.667-130.17h-89.216c-11.776 0-21.333 9.557-21.333 21.333s9.557 21.333 21.333 21.333h89.216c11.776 0 21.333-9.557 21.333-21.333s-9.557-21.333-21.333-21.333zM824.192-219.429c-60.971 0-110.549 49.621-110.549 110.592s49.579 110.592 110.549 110.592 110.592-49.621 110.592-110.592c0-60.971-49.621-110.592-110.592-110.592zM824.192-40.869c-37.419 0-67.883-30.464-67.883-67.925s30.464-67.925 67.883-67.925c37.461 0 67.925 30.464 67.925 67.925 0 37.419-30.464 67.925-67.925 67.925zM735.019-130.17h-446.037c-11.776 0-21.333 9.557-21.333 21.333s9.557 21.333 21.333 21.333h445.995c11.776 0 21.333-9.557 21.333-21.333s-9.515-21.333-21.291-21.333zM574.677 95.579c-11.776 0-21.333 9.557-21.333 21.333v171.051c0 11.776 9.557 21.333 21.333 21.333s21.333-9.557 21.333-21.333v-171.051c0-11.776-9.557-21.333-21.333-21.333zM110.549-130.17h-89.216c-11.776 0-21.333 9.557-21.333 21.333v156.203c0 48.683 39.595 88.277 88.192 88.277h778.368c11.776 0 21.333-9.557 21.333-21.333s-9.557-21.333-21.333-21.333h-778.368c-25.131 0-45.525-20.437-45.525-45.611v-134.869h67.883c11.776 0 21.333-9.557 21.333-21.333s-9.557-21.333-21.333-21.333zM1002.667-130.17c-11.776 0-21.333 9.557-21.333 21.333v156.203c0 25.131-20.437 45.611-45.525 45.611h-66.859c-8.064 0-15.445 4.565-19.072 11.776l-83.328 166.741h-397.995l-83.029-152.789c-5.632-10.411-18.603-14.123-28.971-8.576-10.325 5.632-14.165 18.603-8.533 28.928l89.131 163.968c3.755 6.869 10.923 11.136 18.731 11.136h423.808c8.107 0 15.445-4.565 19.072-11.776l83.328-166.741h53.717c48.64 0 88.192-39.595 88.192-88.277v-156.203c0-11.776-9.557-21.333-21.333-21.333z" />
<glyph unicode="&#xe631;" d="M512-219.429c-284.843 0-516.565 229.675-516.565 512s231.723 512 516.565 512c284.843 0 516.565-229.675 516.565-512s-231.723-512-516.565-512zM512 761.904c-261.333 0-473.899-210.56-473.899-469.333 0-258.816 212.565-469.333 473.899-469.333s473.899 210.56 473.899 469.333c0 258.773-212.565 469.333-473.899 469.333zM320.939 81.926c-5.504 0-11.008 2.091-15.147 6.315-8.277 8.363-8.192 21.888 0.171 30.165l382.080 378.539c8.32 8.32 21.931 8.235 30.165-0.128 8.277-8.363 8.192-21.888-0.171-30.165l-382.080-378.539c-4.139-4.096-9.6-6.187-15.019-6.187zM703.019 81.926c-5.419 0-10.88 2.048-14.976 6.187l-382.080 378.539c-8.363 8.277-8.448 21.803-0.171 30.165 8.235 8.363 21.845 8.448 30.165 0.128l382.080-378.539c8.363-8.277 8.448-21.803 0.171-30.165-4.181-4.181-9.685-6.315-15.189-6.315z" />
<glyph unicode="&#xe632;" d="M774.741-131.45h-548.395c-39.296 0-71.253 32.171-71.253 71.765v659.712c0 39.552 31.957 71.765 71.253 71.765h548.395c39.253 0 71.168-32.171 71.168-71.765v-659.712c0-39.637-31.915-71.765-71.168-71.765zM226.347 628.742c-15.744 0-28.587-12.885-28.587-28.715v-659.712c0-15.829 12.843-28.757 28.587-28.757h548.395c15.701 0 28.501 12.928 28.501 28.757v659.712c0 15.829-12.8 28.715-28.501 28.715h-548.395zM828.757-219.429h-660.608c-7.808 0-14.976 4.309-18.731 11.136-3.755 6.869-3.456 15.275 0.725 21.888l54.101 85.888c6.272 10.069 19.499 12.971 29.397 6.613 9.941-6.315 12.928-19.669 6.571-29.611l-33.237-52.864h587.264l-28.16 56.832c-5.248 10.624-1.024 23.595 9.557 28.885 10.624 5.291 23.339 0.981 28.629-9.643l43.563-87.979c3.285-6.656 2.944-14.592-0.939-20.907-3.883-6.357-10.752-10.24-18.133-10.24zM754.347 650.416h-42.667c0 60.245-94.293 111.147-205.909 111.147s-205.952-50.901-205.952-111.147h-42.667c0 86.443 109.227 154.155 248.576 154.155s248.619-67.712 248.619-154.155zM154.453 412.336l-118.4 77.44c-6.059 4.011-9.728 10.795-9.728 18.048v75.435c0 11.904 9.557 21.504 21.333 21.504h112.171v-42.965h-90.837v-42.24l108.715-71.083-23.253-36.139zM926.507 36.016h-105.003v43.051h105.003c15.701 0 28.501 12.928 28.501 28.8v360.235c0 15.829-12.8 28.715-28.501 28.715h-105.003v43.051h105.003c39.253 0 71.168-32.171 71.168-71.765v-360.235c0-39.595-31.915-71.851-71.168-71.851zM702.080 2.608c-11.776 0-21.333 9.643-21.333 21.504v506.752c0 11.904 9.557 21.504 21.333 21.504s21.333-9.6 21.333-21.504v-506.752c0-11.861-9.557-21.504-21.333-21.504z" />
<glyph unicode="&#xe633;" d="M1082.487-132.673h-803.908c-11.695 0-21.156 9.461-21.156 21.156v84.621c0 11.695 9.461 21.156 21.156 21.156h803.91c11.695 0 21.156-9.461 21.156-21.156v-84.623c-0.002-11.695-9.463-21.154-21.158-21.154zM299.733-90.362h761.6v42.31h-761.6v-42.31zM1040.177-48.052h-719.287c-11.695 0-21.156 9.461-21.156 21.156v465.421c0 11.695 9.461 21.156 21.156 21.156h719.287c11.695 0 21.156-9.461 21.156-21.156v-465.421c0-11.695-9.461-21.156-21.156-21.156zM342.044-5.739h676.977v423.11h-676.977v-423.11zM1167.11-217.296h-973.154c-11.695 0-21.156 9.461-21.156 21.156s9.461 21.156 21.156 21.156h973.154c11.695 0 21.156-9.461 21.156-21.156s-9.461-21.156-21.156-21.156zM1167.11-132.673h-973.154c-11.695 0-21.156 9.461-21.156 21.156s9.461 21.156 21.156 21.156h973.154c11.695 0 21.156-9.461 21.156-21.156s-9.461-21.156-21.156-21.156zM405.51-48.052c-11.695 0-21.156 9.461-21.156 21.156v465.421c0 11.695 9.461 21.156 21.156 21.156s21.156-9.461 21.156-21.156v-465.421c0-11.695-9.461-21.156-21.156-21.156zM617.067-48.052c-11.695 0-21.156 9.461-21.156 21.156v465.421c0 11.695 9.461 21.156 21.156 21.156s21.156-9.461 21.156-21.156v-465.421c0-11.695-9.461-21.156-21.156-21.156zM532.444-48.052c-11.695 0-21.156 9.461-21.156 21.156v465.421c0 11.695 9.461 21.156 21.156 21.156s21.156-9.461 21.156-21.156v-465.421c0-11.695-9.461-21.156-21.156-21.156zM744-48.052c-11.695 0-21.156 9.461-21.156 21.156v465.421c0 11.695 9.461 21.156 21.156 21.156s21.156-9.461 21.156-21.156v-465.421c0-11.695-9.461-21.156-21.156-21.156zM828.623-48.052c-11.695 0-21.156 9.461-21.156 21.156v465.421c0 11.695 9.461 21.156 21.156 21.156s21.156-9.461 21.156-21.156v-465.421c-0.002-11.695-9.463-21.156-21.156-21.156zM955.556-48.052c-11.695 0-21.156 9.461-21.156 21.156v465.421c0 11.695 9.461 21.156 21.156 21.156s21.156-9.461 21.156-21.156v-465.421c-0.002-11.695-9.463-21.156-21.156-21.156zM1124.8 417.371h-888.533c-11.695 0-21.156 9.461-21.156 21.156v84.623c0 11.695 9.461 21.156 21.156 21.156h888.533c11.695 0 21.156-9.461 21.156-21.156v-84.623c-0.002-11.697-9.461-21.156-21.156-21.156zM257.423 459.681h846.221v42.31h-846.221v-42.31zM1125.645 501.992c-0.288 0.043-0.58 0.021-0.847 0h-888.533c-9.587 0-17.995 6.445-20.452 15.723-2.458 9.274 1.634 19.049 9.961 23.799l444.267 253.867c6.485 3.718 14.5 3.718 20.986 0l441.233-252.132c8.45-2.788 14.543-10.722 14.543-20.102 0-11.693-9.483-21.154-21.156-21.154zM315.93 544.304h729.205l-364.602 208.352-364.604-208.352z" horiz-adv-x="1365" />
<glyph unicode="&#xe634;" d="M1231.424 7.462h-1115.044c-13.395 0-24.241 10.839-24.241 24.241 0 13.395 10.846 24.241 24.241 24.241h1115.044c13.399 0 24.241-10.846 24.241-24.241 0-13.399-10.842-24.241-24.241-24.241zM737.532 95.876c-37.069 0-72.105 12.713-98.144 38.75-58.679 58.66-49.638 163.194 20.124 233.030 56.553 56.553 138.62 74.775 199.505 44.358 3.433-1.726 6.298-4.164 8.474-7.029 3.622-0.713 7.127-2.249 10.225-4.689 24.855-19.388 41.047-46.658 48.102-81.030 12.832-58.302-6.675-117.884-53.31-164.565-38.869-38.822-88.484-58.825-134.976-58.825zM794.37 378.331c-34.257 0-71.488-15.906-100.582-44.956-50.869-50.918-59.893-124.7-20.124-164.469 39.817-39.748 113.651-30.775 164.572 20.096 34.703 34.703 49.451 77.999 40.476 118.714-5.067 24.574-15.29 42.255-30.818 54.374-1.707 1.329-3.17 2.816-4.401 4.45-2.084 0.403-4.145 1.116-6.157 2.11-13.067 6.53-27.723 9.681-42.965 9.681zM878.948 351.366c-6.202 0-12.401 2.37-17.137 7.102-9.468 9.468-9.468 24.806 0 34.276l362.846 362.846c9.468 9.468 24.806 9.468 34.276 0s9.468-24.806 0-34.276l-362.848-362.846c-4.73-4.73-10.935-7.102-17.137-7.102zM289.090 113.512c-2.438 0-4.922 0.378-7.383 1.158-12.759 4.073-19.789 17.705-15.693 30.464 16.591 51.863 46.724 188.384-31.652 335.74-80.817 151.951-6.321 298.246-3.123 304.397 6.202 11.838 20.809 16.405 32.642 10.272 11.859-6.153 16.497-20.783 10.37-32.666-0.663-1.28-65.666-130.338 2.91-259.234 87.042-163.646 53.498-315.567 35.012-373.282-3.294-10.293-12.811-16.849-23.083-16.849zM613.892 395.208c-1.276 0-2.579 0.096-3.878 0.309-13.212 2.129-22.208 14.583-20.075 27.789 12.309 76.414-14.253 121.225-15.388 123.095-54.4 102.308-4.902 199.505-2.769 203.603 6.153 11.81 20.736 16.497 32.593 10.272 11.863-6.133 16.527-20.736 10.443-32.623-1.658-3.196-39.652-79.202 1.749-157.135 0.663-0.896 36.623-59.418 21.235-154.933-1.92-11.904-12.215-20.378-23.91-20.378zM458.368 184.264c-5.28 0-10.554 1.756-15.004 5.402-7.151 5.894-68.629 62.637-26.372 241.5 37.188 157.348 0.902 273.696 0.544 274.835-4.092 12.736 2.889 26.394 15.625 30.513 12.663 4.049 26.349-2.865 30.49-15.552 1.683-5.235 41.024-129.655 0.544-300.945-35.104-148.514 10.089-192.971 10.56-193.397 9.54-8.949 10.56-24.124 1.943-33.946-4.858-5.519-11.582-8.41-18.33-8.41zM890.739-205.919h-727.251c-40.098 0-72.721 32.623-72.721 72.721v164.614c0 13.399 10.839 24.241 24.241 24.241s24.241-10.839 24.241-24.241v-164.614c0-13.376 10.865-24.241 24.241-24.241h727.251c13.376 0 24.241 10.865 24.241 24.241v164.614c0 13.399 10.839 24.241 24.241 24.241 13.399 0 24.241-10.839 24.241-24.241v-164.614c-0.004-40.098-32.627-72.721-72.725-72.721z" horiz-adv-x="1365" />
<glyph unicode="&#xe635;" d="M636.587-89.509c-5.547 0-10.88 2.133-14.72 6.187-5.12 5.12-7.253 12.587-5.547 19.627l35.84 152.533c0.853 3.84 2.773 7.253 5.547 10.027l368.427 368.213c25.813 25.813 70.613 25.6 96.213 0l50.133-50.133c12.8-12.8 20.053-29.867 20.053-48.213 0-18.133-7.040-35.2-20.053-48.213l-368.427-368c-2.773-2.773-6.187-4.693-10.027-5.547l-152.747-35.84c-1.493-0.427-3.2-0.64-4.693-0.64zM691.2 73.478l-26.667-113.92 114.133 26.667 364.16 363.947c4.907 4.907 7.68 11.52 7.68 18.56s-2.773 13.653-7.68 18.56l-50.133 50.133c-9.813 9.813-27.307 10.027-37.333 0l-364.16-363.947zM936.107-208.762h-699.947c-34.987 0-63.36 28.373-63.36 63.36v875.947c0.213 34.987 28.587 63.36 63.36 63.36h699.947c34.987 0 63.36-28.373 63.36-63.36v-336c0-11.52-9.387-20.907-20.907-20.907s-20.907 9.387-20.907 20.907v336c0 11.947-9.6 21.547-21.547 21.547h-699.947c-11.947 0-21.547-9.6-21.547-21.547v-876.16c0-11.947 9.6-21.547 21.547-21.547h699.947c11.947 0 21.547 9.6 21.547 21.547v296.533c0 11.52 9.387 20.907 20.907 20.907s20.907-9.387 20.907-20.907v-296.32c0-34.987-28.373-63.36-63.36-63.36zM584.96 358.918c-60.8 0-108.587 65.493-108.587 149.12s47.787 149.12 108.587 149.12 108.587-65.493 108.587-149.12c0-83.627-47.787-149.12-108.587-149.12zM584.96 615.344c-36.267 0-66.773-49.067-66.773-107.307s30.507-107.307 66.773-107.307c36.267 0 66.773 49.067 66.773 107.307s-30.507 107.307-66.773 107.307zM439.893 421.851h-94.507c-11.52 0-20.907 9.387-20.907 20.907s9.387 20.907 20.907 20.907h94.507c11.52 0 20.907-9.387 20.907-20.907 0-11.733-9.387-20.907-20.907-20.907zM426.667 556.038h-81.28c-11.52 0-20.907 9.387-20.907 20.907s9.387 20.907 20.907 20.907h81.28c11.52 0 20.907-9.387 20.907-20.907-0.213-11.52-9.387-20.907-20.907-20.907zM824.32 423.558h-89.387c-11.52 0-20.907 9.387-20.907 20.907s9.387 20.907 20.907 20.907h89.387c11.52 0 20.907-9.387 20.907-20.907s-9.387-20.907-20.907-20.907zM824.32 556.038h-81.28c-11.52 0-20.907 9.387-20.907 20.907s9.387 20.907 20.907 20.907h81.28c11.52 0 20.907-9.387 20.907-20.907s-9.387-20.907-20.907-20.907zM846.507 259.291h-507.307c-11.52 0-20.907 9.387-20.907 20.907s9.387 20.907 20.907 20.907h507.307c11.52 0 20.907-9.387 20.907-20.907s-9.387-20.907-20.907-20.907z" horiz-adv-x="1365" />
<glyph unicode="&#xe636;" d="M788.181-150.864h-552.405c-27.093 0-48.256 28.203-48.256 64.128v827.179c0 36.011 21.163 64.171 48.256 64.171h552.363c27.093 0 48.299-28.203 48.299-64.171v-827.179c0-35.925-21.205-64.128-48.256-64.128zM786.645 762.16l-550.869-0.341c-0.256-0.683-5.504-8.021-5.504-21.376v-827.179c0-13.312 5.205-20.651 6.997-21.675l549.803 0.299c2.091 1.792 6.613 8.96 6.613 21.333v827.221c0 13.355-5.248 20.651-7.040 21.717zM508.117-136.613c-11.819 0-21.376 9.6-21.376 21.376v879.36c0 11.819 9.557 21.376 21.376 21.376s21.376-9.6 21.376-21.376v-879.317c0-11.819-9.557-21.419-21.376-21.419zM618.069 317.958c-11.819 0-21.376 9.6-21.376 21.419v98.901c0 11.819 9.557 21.419 21.376 21.419s21.376-9.6 21.376-21.419v-98.901c0-11.819-9.515-21.419-21.376-21.419zM398.805 317.958c-11.819 0-21.376 9.6-21.376 21.419v98.901c0 11.819 9.557 21.419 21.376 21.419s21.376-9.6 21.376-21.419v-98.901c0-11.819-9.557-21.419-21.376-21.419zM259.797-219.472c-11.819 0-21.376 9.6-21.376 21.376v64.213c0 11.819 9.557 21.376 21.376 21.376s21.376-9.6 21.376-21.376v-64.213c0-11.819-9.557-21.376-21.376-21.376zM763.051-219.472c-11.819 0-21.376 9.6-21.376 21.376v64.213c0 11.819 9.557 21.376 21.376 21.376s21.376-9.6 21.376-21.376v-64.213c0-11.819-9.557-21.376-21.376-21.376z" />
<glyph unicode="&#xe637;" d="M1158.827 662.491h-952.32c-11.52 0-20.693-9.387-20.693-20.693 0-11.52 9.387-20.693 20.693-20.693h104.32v-763.307c0-34.347 27.947-62.293 62.293-62.293h619.52c34.347 0 62.293 27.947 62.293 62.293v763.307h104.32c11.52 0 20.693 9.173 20.693 20.693-0.213 11.52-9.6 20.693-21.12 20.693zM495.573-54.096c0-11.52-9.173-20.693-20.693-20.693s-20.693 9.173-20.693 20.693v541.653c0 11.52 9.173 20.693 20.693 20.693s20.693-9.387 20.693-20.693v-541.653zM703.36-54.096c0-11.52-9.387-20.693-20.693-20.693-11.52 0-20.693 9.173-20.693 20.693v541.653c0 11.52 9.173 20.693 20.693 20.693s20.693-9.387 20.693-20.693v-541.653zM911.36-54.096c0-11.52-9.173-20.693-20.693-20.693s-20.693 9.173-20.693 20.693v541.653c0 11.52 9.387 20.693 20.693 20.693 11.52 0 20.693-9.387 20.693-20.693v-541.653zM887.467 731.611c0 34.347-27.947 62.293-62.293 62.293h-285.013c-34.347 0-62.293-27.947-62.293-62.293v-31.147h409.6v31.147z" horiz-adv-x="1365" />
<glyph unicode="&#xe638;" d="M667.733-113.189h-468.693c-11.093 0-20.267 8.96-20.267 20.267v849.92c0 11.093 8.96 20.267 20.267 20.267h445.227c5.333 0 10.453-2.133 14.293-5.973l202.453-202.453c3.84-3.84 5.973-8.96 5.973-14.293v-161.92c0-11.093-8.96-20.267-20.267-20.267-11.093 0-20.267 8.96-20.267 20.267v153.387l-190.507 190.507h-416.64v-809.387h448.427c11.093 0 20.267-8.96 20.267-20.267s-8.96-20.053-20.267-20.053zM846.72 534.278h-202.453c-11.093 0-20.267 8.96-20.267 20.267v202.453c0 11.093 8.96 20.267 20.267 20.267 11.093 0 20.267-8.96 20.267-20.267v-182.187h182.187c11.093 0 20.267-8.96 20.267-20.267s-9.173-20.267-20.267-20.267zM441.6 266.118h-122.667c-11.733 0-21.333 9.6-21.333 21.333s9.6 21.333 21.333 21.333h122.667c11.733 0 21.333-9.6 21.333-21.333s-9.6-21.333-21.333-21.333zM522.667 141.531h-203.733c-11.733 0-21.333 9.6-21.333 21.333s9.6 21.333 21.333 21.333h203.733c11.733 0 21.333-9.6 21.333-21.333s-9.6-21.333-21.333-21.333zM592.427 17.158h-273.493c-11.733 0-21.333 9.6-21.333 21.333s9.6 21.333 21.333 21.333h273.493c11.733 0 21.333-9.6 21.333-21.333s-9.6-21.333-21.333-21.333zM1097.173-208.762h-319.573c-23.467 0-42.453 18.987-42.453 42.453v403.413c0 11.733 9.387 21.12 21.12 21.12s21.12-9.387 21.12-21.12v-403.2l320-0.213 0.213 403.413c0 11.733 9.387 21.12 21.12 21.12s21.12-9.387 21.12-21.12v-403.2c0-23.68-19.2-42.667-42.667-42.667zM1183.147 221.318h-491.52c-11.733 0-21.12 9.387-21.12 21.12s9.387 21.12 21.12 21.12h491.52c11.733 0 21.12-9.387 21.12-21.12 0-11.52-9.387-21.12-21.12-21.12zM869.333-114.682c-11.733 0-21.12 9.387-21.12 21.12v239.147c0 11.733 9.387 21.12 21.12 21.12s21.12-9.387 21.12-21.12v-239.147c0-11.733-9.387-21.12-21.12-21.12zM1005.44-114.682c-11.733 0-21.12 9.387-21.12 21.12v239.147c0 11.733 9.387 21.12 21.12 21.12s21.12-9.387 21.12-21.12v-239.147c0-11.733-9.387-21.12-21.12-21.12zM1032.32 222.811c-11.733 0-21.12 9.387-21.12 21.12v40.533l-147.413 0.213-0.213-40.747c0-11.733-9.387-21.12-21.12-21.12s-21.12 9.387-21.12 21.12v40.533c0 23.467 18.987 42.453 42.453 42.453h147.2c23.467 0 42.667-18.987 42.667-42.453v-40.533c0-11.52-9.6-21.12-21.333-21.12z" horiz-adv-x="1365" />
<glyph unicode="&#xe639;" d="M991.787-203.429h-618.24c-34.347 0-62.080 27.947-62.080 62.080v780.16c0 11.52 9.173 20.693 20.693 20.693s20.693-9.173 20.693-20.693v-780.16c0-11.307 9.387-20.693 20.693-20.693h618.24c11.307 0 20.693 9.387 20.693 20.693v780.16c0 11.52 9.173 20.693 20.693 20.693s20.693-9.173 20.693-20.693v-780.16c0-34.133-27.947-62.080-62.080-62.080zM1157.973 628.784h-950.613c-11.52 0-20.693 9.173-20.693 20.693s9.173 20.693 20.693 20.693h950.4c11.52 0 20.693-9.173 20.693-20.693 0.213-11.52-9.173-20.693-20.48-20.693zM475.307-43.642c-11.52 0-20.693 9.173-20.693 20.693v540.587c0 11.52 9.173 20.693 20.693 20.693s20.693-9.173 20.693-20.693v-540.587c0-11.307-9.387-20.693-20.693-20.693zM682.667-43.642c-11.52 0-20.693 9.173-20.693 20.693v540.587c0 11.52 9.173 20.693 20.693 20.693s20.693-9.173 20.693-20.693v-540.587c0-11.307-9.173-20.693-20.693-20.693zM890.24-43.642c-11.52 0-20.693 9.173-20.693 20.693v540.587c0 11.52 9.173 20.693 20.693 20.693s20.693-9.173 20.693-20.693v-540.587c0-11.307-9.387-20.693-20.693-20.693zM866.347 631.558c-11.52 0-20.693 9.173-20.693 20.693v78.507c0 11.307-9.387 20.693-20.693 20.693h-284.587c-11.307 0-20.693-9.387-20.693-20.693v-78.507c0-11.52-9.173-20.693-20.693-20.693s-20.693 9.173-20.693 20.693v78.507c0 34.347 27.947 62.080 62.080 62.080h284.373c34.347 0 62.080-27.947 62.080-62.080v-78.507c0.213-11.52-8.96-20.693-20.48-20.693z" horiz-adv-x="1365" />
<glyph unicode="&#xe63a;" d="M1038.933 128.518c-11.307 0-20.48 9.173-20.48 20.48v558.293c0 11.733-6.4 20.48-12.16 20.48h-538.667c-5.76 0-12.16-8.747-12.16-20.48v-474.88c0-11.307-9.173-20.48-20.48-20.48s-20.48 9.173-20.48 20.48v474.88c0 33.707 23.893 61.227 53.12 61.227h538.667c29.227 0 53.12-27.52 53.12-61.227v-558.293c0-11.307-9.173-20.48-20.48-20.48zM736 348.891c-49.28 0-87.893 63.147-87.893 144 0 80.64 38.613 144 87.893 144s87.893-63.147 87.893-144c0.213-80.853-38.613-144-87.893-144zM736 595.931c-22.187 0-46.933-44.16-46.933-103.040 0-59.093 24.747-103.040 46.933-103.040s47.147 44.16 47.147 103.040c0 58.88-24.747 103.040-47.147 103.040zM616.32 409.478h-64.64c-11.307 0-20.48 9.173-20.48 20.48s9.173 20.48 20.48 20.48h64.64c11.307 0 20.48-9.173 20.48-20.48 0-11.52-9.173-20.48-20.48-20.48zM614.187 538.758h-62.507c-11.307 0-20.48 9.173-20.48 20.48s9.173 20.48 20.48 20.48h62.507c11.307 0 20.48-9.173 20.48-20.48s-9.173-20.48-20.48-20.48zM920.32 411.184h-68.693c-11.307 0-20.48 9.173-20.48 20.48s9.173 20.48 20.48 20.48h68.693c11.307 0 20.48-9.173 20.48-20.48 0-11.52-9.173-20.48-20.48-20.48zM920.32 538.758h-62.507c-11.307 0-20.48 9.173-20.48 20.48s9.173 20.48 20.48 20.48h62.507c11.307 0 20.48-9.173 20.48-20.48s-9.173-20.48-20.48-20.48zM937.387 252.891h-390.4c-11.307 0-20.48 9.173-20.48 20.48s9.173 20.48 20.48 20.48h390.4c11.307 0 20.48-9.173 20.48-20.48-0.213-11.307-9.173-20.48-20.48-20.48zM361.387-170.576h-163.413c-11.307 0-20.48 9.173-20.48 20.48v328.533c0 11.307 9.173 20.48 20.48 20.48h163.413c11.307 0 20.48-9.173 20.48-20.48v-328.533c0-11.307-9.173-20.48-20.48-20.48zM218.453-129.616h122.453v287.573h-122.453v-287.573zM695.253-204.709c-54.4 0-114.133 20.267-221.44 57.6-34.133 11.947-73.387 25.387-119.040 40.747-10.667 3.627-16.427 15.147-13.013 25.813 3.627 10.667 15.147 16.427 25.813 13.013 45.867-15.36 85.333-29.013 119.467-40.96 223.573-77.653 223.573-77.44 439.467 37.333 46.72 24.96 103.68 55.253 174.72 91.093-30.72 23.68-53.973 24.107-80.853 16.427l-180.267-59.947c-10.667-3.627-22.4 2.347-25.813 13.013-3.627 10.667 2.133 22.187 13.013 25.813l181.12 60.16c54.187 15.573 95.573 2.133 143.36-45.867 4.693-4.693 6.827-11.307 5.76-17.707s-5.12-11.947-11.093-14.933c-83.2-41.6-148.267-76.16-200.533-104.107-126.080-67.2-184.32-97.493-250.667-97.493zM790.4-46.202h-224.853c-11.307 0-20.48 9.173-20.48 20.48s9.173 20.48 20.48 20.48h224.64c20.907 0 28.373 11.093 28.373 20.48s-7.467 20.48-28.373 20.48h-122.453c-5.333 0-10.667 2.133-14.507 5.973-22.827 22.827-84.907 75.733-169.387 75.733h-122.453c-11.307 0-20.48 9.173-20.48 20.48s9.173 20.48 20.48 20.48h122.453c92.8 0 161.707-53.12 192-81.707h114.347c45.44 0 69.333-30.933 69.333-61.227 0-30.933-23.68-61.653-69.12-61.653z" horiz-adv-x="1365" />
<glyph unicode="&#xe63b;" d="M680.533 806.704c-188.203 0-341.333-153.131-341.333-341.333 0-181.12 310.315-653.056 323.541-673.067 3.925-5.973 10.624-9.6 17.792-9.6s13.867 3.584 17.792 9.6c13.227 20.011 323.541 491.947 323.541 673.067 0 188.203-153.131 341.333-341.333 341.333zM680.533-156.666c-66.816 104.405-298.667 477.184-298.667 622.037 0 164.693 133.973 298.667 298.667 298.667s298.667-133.973 298.667-298.667c0-144.853-231.851-517.632-298.667-622.037zM680.533 614.704c-82.347 0-149.333-66.987-149.333-149.333s66.987-149.333 149.333-149.333 149.333 66.987 149.333 149.333-66.987 149.333-149.333 149.333zM680.533 358.704c-58.795 0-106.667 47.872-106.667 106.667s47.872 106.667 106.667 106.667 106.667-47.872 106.667-106.667-47.872-106.667-106.667-106.667z" horiz-adv-x="1365" />
</font>
</defs>
</svg>
